<svg width="224" height="130" viewBox="0 0 224 130" fill="none" xmlns="http://www.w3.org/2000/svg">
<path d="M18.1655 129.624C11.7956 129.63 6.10757 125.77 3.94798 119.977C-0.683087 107.506 -4.76315 84.4041 13.3688 59.4158C33.4178 31.7862 73.5252 3.22295 101.736 0.296781C145.931 -4.28508 158.284 45.5276 178.114 57.1191C195.247 67.1343 220.059 82.1522 223.302 113.54C224.137 121.575 218.077 128.743 209.766 129.551C209.266 129.599 208.764 129.623 208.261 129.624L18.1655 129.624Z" fill="#F3F5FD"/>
<path d="M20.3757 128.784C16.5838 127.609 12.9048 126.074 9.55267 121.776C8.86478 120.895 8.21843 119.766 8.5954 118.712C8.87914 117.919 9.6999 117.41 10.5339 117.281C10.8445 117.236 11.1593 117.227 11.472 117.255C11.4735 117.255 11.475 117.256 11.4756 117.255C11.956 117.304 12.4309 117.397 12.8943 117.533L13.0268 117.571C15.2392 118.2 17.3467 119.152 19.2812 120.396C19.4565 120.508 19.6644 120.557 19.8712 120.536C20.0779 120.514 20.2713 120.423 20.42 120.278C20.5686 120.133 20.6637 119.942 20.6899 119.735C20.716 119.529 20.6716 119.32 20.5639 119.142C20.3666 118.82 20.1369 118.518 19.8785 118.242C19.4975 117.844 19.0799 117.482 18.6314 117.161C18.0354 116.726 17.3992 116.338 16.7768 115.941C14.4629 114.467 12.2708 112.81 10.2214 110.987C8.75871 109.684 7.32817 108.238 6.63301 106.406C6.31347 105.564 6.16816 104.592 6.54915 103.776C7.17788 102.436 8.95897 102.06 10.4154 102.338C12.9674 102.827 15.0062 104.698 16.8141 106.562C18.3134 108.112 19.9932 109.827 22.1472 109.923C22.5144 109.957 22.8837 109.883 23.2092 109.709C23.8236 109.337 23.9815 108.475 23.7625 107.79C23.5435 107.106 23.0369 106.559 22.5476 106.033C19.7049 102.983 16.9068 99.8094 15.0606 96.0713C13.2144 92.3331 12.3965 87.9209 13.6794 83.9523C14.0556 82.7921 14.6208 81.6633 15.5025 80.8205C16.3841 79.9777 17.6205 79.4491 18.8309 79.6105C20.4799 79.8276 21.7218 81.2197 22.5573 82.6561C25.4291 87.5868 25.2536 93.6281 26.0624 99.276C26.2889 100.857 26.6177 102.479 27.5596 103.78C27.6465 103.906 27.7591 104.011 27.8901 104.089C28.6651 104.537 29.3606 103.632 29.6514 102.864C30.8001 99.8262 31.0873 96.3517 33.1441 93.8372C33.9291 92.8799 35.0395 92.08 36.277 92.0879C37.7886 92.0982 39.0828 93.3607 39.5239 94.8065C39.965 96.2524 39.701 97.823 39.2285 99.2588C38.3513 101.921 36.779 104.313 34.9263 106.415C33.9499 107.526 32.8451 108.647 32.5523 110.095C32.4626 110.587 32.5001 111.094 32.6614 111.567C32.8227 112.041 33.1023 112.466 33.4738 112.801C33.6475 112.952 33.8497 113.067 34.0685 113.138C34.2873 113.21 34.5183 113.237 34.7477 113.217C35.244 113.172 35.6927 112.919 36.1252 112.673C36.3069 112.569 36.489 112.464 36.6722 112.361C37.3946 111.95 38.1172 111.538 38.8398 111.126C40.6768 110.078 42.895 109.007 44.8084 109.91C45.7848 110.371 46.4246 111.278 46.7254 112.32C46.9948 113.264 46.9948 114.266 46.7254 115.21C46.1555 117.175 42.563 122.643 41.0814 124.053C39.3512 125.701 33.3511 132.805 20.3757 128.784Z" fill="#8DDBE0"/>
<path d="M175.052 1.46777H56.1431V87.5808H175.052V1.46777Z" fill="#DEE8F5"/>
<path d="M175.052 1.46777H56.1431V8.56131H175.052V1.46777Z" fill="#C1D8ED"/>
<path d="M171.07 6.79436C172.052 6.79436 172.849 5.99754 172.849 5.01461C172.849 4.03168 172.052 3.23486 171.07 3.23486C170.087 3.23486 169.29 4.03168 169.29 5.01461C169.29 5.99754 170.087 6.79436 171.07 6.79436Z" fill="white"/>
<path d="M81.1216 19.0989H65.3799V34.8405H81.1216V19.0989Z" fill="white"/>
<path d="M102.295 19.0989H86.5532V34.8405H102.295V19.0989Z" fill="white"/>
<path d="M123.468 19.0989H107.727V34.8405H123.468V19.0989Z" fill="white"/>
<path d="M144.642 19.0989H128.9V34.8405H144.642V19.0989Z" fill="white"/>
<path d="M81.1216 40.0798H65.3799V55.8215H81.1216V40.0798Z" fill="white"/>
<path d="M102.295 40.0798H86.5532V55.8215H102.295V40.0798Z" fill="#F20089"/>
<path d="M123.468 40.0798H107.727V55.8215H123.468V40.0798Z" fill="white"/>
<path d="M144.642 40.0798H128.9V55.8215H144.642V40.0798Z" fill="white"/>
<path d="M81.1216 61.0605H65.3799V76.8022H81.1216V61.0605Z" fill="white"/>
<path d="M102.295 61.0605H86.5532V76.8022H102.295V61.0605Z" fill="white"/>
<path d="M123.468 61.0605H107.727V76.8022H123.468V61.0605Z" fill="white"/>
<path d="M144.642 61.0605H128.9V76.8022H144.642V61.0605Z" fill="white"/>
<path d="M165.815 19.0989H150.074V34.8405H165.815V19.0989Z" fill="white"/>
<path d="M165.815 40.0798H150.074V55.8215H165.815V40.0798Z" fill="white"/>
<path d="M165.815 61.0605H150.074V76.8022H165.815V61.0605Z" fill="white"/>
<path d="M77.2118 127.929L73.2192 127.454C73.399 125.943 73.6021 124.128 73.6157 123.83C73.6157 123.849 73.6157 123.865 73.6157 123.877H77.6363C77.6355 123.997 77.6355 124.364 77.2118 127.929Z" fill="#E98862"/>
<path d="M61.1914 128.409L57.1709 128.396C57.1709 128.396 57.1843 124.245 57.1843 123.877H61.2048C61.2048 124.246 61.1914 128.409 61.1914 128.409Z" fill="#E98862"/>
<path d="M78.6949 126.539C78.3621 118.113 78.342 109.264 78.2377 100.816C76.855 91.7039 76.128 81.71 74.4212 72.6627L74.3701 72.6779L74.2206 71.6574L59.6554 70.7585L59.0887 80.2738H59.1431C58.4098 93.0209 56.9925 113.513 56.1348 126.431L63.1935 127.027C64.4542 114.323 66.3184 94.0831 67.4575 81.5615C68.7077 87.9419 70.0779 95.1269 71.188 101.583C71.4309 109.831 71.6342 118.425 71.612 126.659L78.6949 126.539Z" fill="#262626"/>
<path d="M66.0792 129.965C66.1825 129.964 66.2846 129.943 66.3799 129.903C66.4751 129.863 66.5615 129.805 66.6342 129.731C66.7069 129.658 66.7644 129.571 66.8035 129.476C66.8425 129.38 66.8624 129.278 66.8618 129.174C66.8618 129.155 66.8619 129.136 66.8596 129.117C66.848 128.967 66.7939 128.824 66.7038 128.705C66.6136 128.585 66.4911 128.494 66.3507 128.441L61.671 126.874C61.5803 126.844 61.4843 126.834 61.3894 126.844C61.2945 126.855 61.203 126.886 61.1211 126.935C60.4778 127.381 59.7082 127.61 58.9255 127.586C58.316 127.543 57.7309 127.329 57.2369 126.969C57.1935 126.933 57.1408 126.911 57.0851 126.904C57.0294 126.897 56.9728 126.906 56.9221 126.931C56.8714 126.955 56.8285 126.993 56.7986 127.04C56.7686 127.088 56.7528 127.143 56.7529 127.199V129.487C56.7529 129.623 56.8069 129.753 56.9031 129.85C56.9993 129.946 57.1297 130 57.2656 130H57.2677L66.0792 129.965Z" fill="#C1D8ED"/>
<path d="M82.1102 129.965C82.2135 129.964 82.3157 129.943 82.4109 129.903C82.5061 129.863 82.5925 129.805 82.6652 129.732C82.7379 129.658 82.7954 129.571 82.8345 129.476C82.8735 129.38 82.8934 129.278 82.8929 129.174C82.8929 129.155 82.8929 129.136 82.8906 129.117C82.8791 128.968 82.825 128.824 82.7348 128.705C82.6446 128.585 82.522 128.494 82.3815 128.441L77.702 126.874C77.6113 126.844 77.5152 126.834 77.4203 126.844C77.3254 126.855 77.2338 126.886 77.1519 126.935C76.5087 127.381 75.7392 127.609 74.9566 127.586C74.347 127.543 73.7618 127.329 73.2677 126.969C73.2243 126.933 73.1717 126.911 73.116 126.904C73.0602 126.897 73.0037 126.906 72.953 126.93C72.9022 126.955 72.8594 126.993 72.8295 127.04C72.7995 127.088 72.7838 127.143 72.7839 127.199V129.487C72.7839 129.623 72.838 129.753 72.9341 129.85C73.0303 129.946 73.1607 130 73.2967 130H73.2988L82.1102 129.965Z" fill="#C1D8ED"/>
<path d="M66.7464 42.2537L66.0908 42.4738C66.0908 42.4738 66.1764 44.7988 66.4186 45.9816C66.6608 47.1644 66.8496 48.7056 67.6022 48.8749C68.601 49.0996 69.7924 49.1825 70.6579 48.8732C71.3125 48.6392 71.413 46.4168 71.477 45.3192C71.5055 44.8316 71.4435 44.8741 70.9562 44.9074C69.9591 44.9759 68.4084 45.0286 67.8375 44.7542C66.9677 44.3369 66.7464 42.2537 66.7464 42.2537Z" fill="#0F1011"/>
<path d="M64.3228 50.967C64.3228 50.967 65.8033 50.182 65.4726 46.1508L68.5313 45.5835C68.5313 45.5835 68.1867 49.1979 69.7351 50.3453L64.3228 50.967Z" fill="#E98862"/>
<path d="M63.737 44.5875C63.9488 45.8105 64.6162 46.9688 65.6952 47.3636C66.9758 47.8326 67.9245 47.8644 69.4012 47.8644C71.4162 47.8644 71.3496 45.7628 71.4063 43.645C71.4637 41.5198 71.4507 39.7234 70.6542 38.9825C69.0652 37.5035 64.2423 37.9548 63.6746 40.4284C63.3811 41.7076 63.5354 43.4233 63.737 44.5875Z" fill="#E98862"/>
<path d="M62.7668 43.0143C63.0611 44.8735 63.4465 45.46 64.0028 46.3487C64.3325 46.9041 64.7752 47.3841 65.3022 47.7576C65.7123 48.0216 69.7351 47.9668 70.4295 47.8654C71.4542 47.7155 71.6094 44.7962 71.4264 44.7962C71.1986 44.7962 71.1444 44.7901 70.8879 44.7901C70.4197 44.7901 70.373 42.0012 70.2848 40.7673C70.3567 40.7572 70.4293 40.7522 70.5019 40.7521C72.7046 40.7514 62.2728 39.8933 62.7668 43.0143Z" fill="#0F1011"/>
<path d="M69.8903 44.8495C69.5904 44.8571 69.299 44.7497 69.0757 44.5493C68.8525 44.3488 68.7145 44.0706 68.6899 43.7716C68.6747 43.6206 68.6894 43.4682 68.7331 43.3229C68.7768 43.1776 68.8487 43.0424 68.9448 42.925C69.0408 42.8075 69.159 42.7101 69.2927 42.6384C69.4263 42.5666 69.5728 42.5219 69.7238 42.5068C69.7341 42.5057 69.7446 42.5049 69.755 42.5042C69.7821 43.3389 69.8252 44.2175 69.8903 44.8495Z" fill="#E98862"/>
<path d="M62.7667 43.0143C62.7667 43.0143 61.734 37.7916 66.7246 37.3089C71.7152 36.8263 71.4152 41.4924 71.4152 41.4924L69.4352 42.5025C69.4352 42.5025 67.2249 43.1088 62.7667 43.0143Z" fill="#262626"/>
<path d="M63.4784 42.4067C63.4663 41.9528 63.6349 41.5126 63.9471 41.1829C64.2594 40.8531 64.6897 40.6608 65.1436 40.6481C65.5975 40.6354 66.0379 40.8034 66.3681 41.1152C66.6983 41.427 66.8912 41.8571 66.9044 42.311" fill="#0F1011"/>
<path d="M69.4363 42.5012C69.4363 42.5012 71.0648 41.9522 71.9363 41.4375C72.8643 40.8894 74.1189 39.8936 74.1125 39.5973C74.101 39.0804 72.2958 38.9362 70.8211 38.9946L70.8324 39.0166C71.0782 39.5034 71.1467 40.0606 71.0262 40.5924C70.9056 41.1243 70.6035 41.5975 70.1718 41.9307L69.4363 42.5012Z" fill="#262626"/>
<path d="M55.3682 77.6572C55.3682 78.2278 55.6693 80.135 55.1848 80.2713C54.8943 80.3531 54.5513 78.9312 54.5513 78.9312" fill="#E98862"/>
<path d="M53.0813 77.3575C53.0813 77.3575 51.4992 81.2084 53.3038 83.4206C53.3498 83.4769 53.4116 83.518 53.4813 83.5385C53.5509 83.5591 53.6252 83.5582 53.6943 83.536C53.7635 83.5137 53.8243 83.4712 53.8689 83.4139C53.9135 83.3566 53.9398 83.2871 53.9444 83.2146C54.0321 81.723 54.3329 78.6592 55.3164 79.017V76.6108" fill="#E98862"/>
<path d="M88.7577 56.8406C88.7577 56.8406 90.9674 55.0853 91.1236 54.4549C91.2799 53.8244 89.7237 52.5844 89.7237 52.5844C89.7237 52.5844 91.793 50.4975 91.3804 50.1962C90.8933 49.8393 88.4923 52.8731 88.4923 52.8731C88.4923 52.8731 88.8316 51.7818 88.4088 51.71C88.2352 51.6807 88.0975 51.8511 87.8257 52.6236C87.5159 53.5043 86.8967 54.8282 86.8967 54.8282L88.7577 56.8406Z" fill="#E98862"/>
<path d="M86.4309 54.5065L79.895 61.8602L74.7832 52.7088C74.2992 51.2631 73.1972 50.2948 70.9497 50.1984C70.1811 50.1655 66.4303 50.1602 63.6841 50.1602C61.8393 50.1602 60.3247 50.7261 59.4499 51.6008C59.0093 52.035 58.6797 52.5688 58.4888 53.1572L58.4622 53.1474L54.0678 65.0973C54.0186 65.2314 53.9832 65.3701 53.9621 65.5113L52.1885 77.4606L56.3179 78.0733L58.0602 66.3362L59.8349 61.5103C60.0197 62.2521 60.1206 63.0122 60.1359 63.7765C60.1359 67.797 58.3171 69.6001 58.4511 71.6644C58.6617 74.9086 74.4239 74.142 75.227 72.2992C76.0539 70.3989 74.3756 69.2279 74.4491 63.0118C74.457 62.3354 74.5092 61.6278 74.5812 60.9074L77.6828 66.4595C77.8451 66.7503 78.0747 66.998 78.3524 67.1819C78.63 67.3659 78.9477 67.4806 79.2788 67.5167C79.6098 67.5528 79.9448 67.5091 80.2555 67.3893C80.5662 67.2695 80.8438 67.0771 81.065 66.8281L89.6582 56.7768L86.4309 54.5065Z" fill="#367CFF"/>
<path d="M185.566 99.6826L179.537 129.087C179.498 129.24 179.409 129.377 179.285 129.474C179.16 129.571 179.006 129.624 178.848 129.624V129.624C178.74 129.624 178.633 129.6 178.536 129.552C178.439 129.505 178.354 129.436 178.287 129.351C178.221 129.266 178.175 129.166 178.152 129.061C178.13 128.955 178.132 128.846 178.158 128.741L184.274 98.9968L185.566 99.6826Z" fill="#C1D8ED"/>
<path d="M199.729 99.6354L205.758 129.039C205.797 129.193 205.886 129.329 206.01 129.427C206.135 129.524 206.289 129.577 206.447 129.577V129.577C206.555 129.577 206.662 129.552 206.759 129.505C206.856 129.458 206.941 129.389 207.008 129.303C207.074 129.218 207.12 129.119 207.143 129.013C207.165 128.908 207.163 128.798 207.137 128.693L201.022 98.9495L199.729 99.6354Z" fill="#C1D8ED"/>
<path d="M206.066 96.8066H179.229C178.551 96.8066 178 97.3567 178 98.0352V100.74C178 101.419 178.551 101.969 179.229 101.969H206.066C206.745 101.969 207.295 101.419 207.295 100.74V98.0352C207.295 97.3567 206.745 96.8066 206.066 96.8066Z" fill="#DEE8F5"/>
<path d="M198.438 83.2067C197.636 82.9441 196.812 83.2387 196.025 83.8385C197.062 81.2179 197.491 78.8512 195.717 78.7447C194.475 78.6701 193.524 79.6223 192.802 80.9763C192.548 78.5958 191.892 76.8204 190.424 77.409C188.812 78.0551 188.567 80.27 188.811 82.5872C188.101 81.4036 187.337 80.7437 186.642 81.4385C184.57 83.5104 189.656 89.3499 189.656 89.3499H190.92L191.641 90.1326C191.495 90.4408 191.415 90.6246 191.415 90.6246L192.33 92.4878C192.33 92.4878 201.768 84.2969 198.438 83.2067Z" fill="#8DDBE0"/>
<path d="M196.174 96.6595H189.025L187.828 88.3145H197.37L196.174 96.6595Z" fill="#C1D8ED"/>
</svg>
