<svg width="214" height="130" viewBox="0 0 214 130" fill="none" xmlns="http://www.w3.org/2000/svg">
<g clip-path="url(#clip0_255_1365)">
<path d="M27.0665 8.94567C27.0254 4.97512 28.5948 2.51465 30.7225 1.16371C32.8217 -0.169328 39.4052 -1.3296 41.9012 3.50936C43.5301 6.66706 42.8871 7.79582 43.3485 12.8532C43.81 17.9106 45.5825 18.4415 47.3808 24.5715C48.7907 29.3801 40.8918 31.9327 34.0525 31.7121C27.2131 31.4915 22.877 29.9764 22.4802 25.6271C21.9098 19.3841 27.1469 16.7268 27.0665 8.94567Z" fill="#0F1011"/>
<path d="M31.1418 19.9235C31.1418 19.9235 33.1964 18.8097 32.684 13.1913L36.9427 12.3613C36.9427 12.3613 36.5095 17.4067 38.6824 18.9873L31.1418 19.9235Z" fill="#E98862"/>
<g opacity="0.15">
<path opacity="0.15" d="M37.7987 17.9413L34.2297 15.2626L37.013 15.2092C37.1025 16.1609 37.3689 17.0875 37.7987 17.9413V17.9413Z" fill="black"/>
</g>
<path d="M30.2432 11.0332C30.5543 12.7364 31.4999 14.3445 33.0097 14.8804C34.6562 15.5166 36.4334 15.7401 38.1862 15.5315C42.8529 15.1055 41.8318 4.49514 39.5956 2.45285C37.3594 0.410561 30.863 1.77645 30.103 5.23376C29.7102 7.0229 29.9473 9.41207 30.2432 11.0332Z" fill="#E98862"/>
<path d="M36.9082 9.6579C37.1219 9.6579 37.2951 9.48467 37.2951 9.27097C37.2951 9.05727 37.1219 8.88403 36.9082 8.88403C36.6945 8.88403 36.5212 9.05727 36.5212 9.27097C36.5212 9.48467 36.6945 9.6579 36.9082 9.6579Z" fill="#0F1011"/>
<path d="M39.9587 9.37983C40.1724 9.37983 40.3456 9.20659 40.3456 8.99289C40.3456 8.77919 40.1724 8.60596 39.9587 8.60596C39.745 8.60596 39.5718 8.77919 39.5718 8.99289C39.5718 9.20659 39.745 9.37983 39.9587 9.37983Z" fill="#0F1011"/>
<path d="M40.6197 8.16207L39.5946 8.1586C39.5476 8.1568 39.5031 8.13687 39.4705 8.10299C39.4379 8.0691 39.4197 8.02391 39.4197 7.97688C39.4197 7.92986 39.4379 7.88466 39.4705 7.85078C39.5031 7.8169 39.5476 7.79697 39.5946 7.79517V7.79517L40.6197 7.79837C40.6679 7.79837 40.7142 7.81753 40.7483 7.85163C40.7824 7.88574 40.8016 7.93199 40.8016 7.98022C40.8016 8.02845 40.7824 8.07471 40.7483 8.10881C40.7142 8.14291 40.6679 8.16207 40.6197 8.16207V8.16207Z" fill="#0F1011"/>
<path d="M36.0652 8.57762C36.0208 8.5777 35.9778 8.5615 35.9445 8.53208C35.9112 8.50267 35.8898 8.46207 35.8844 8.41796C35.879 8.37385 35.8899 8.32929 35.9151 8.29268C35.9403 8.25607 35.978 8.22995 36.0212 8.21926L37.0295 7.96691C37.0763 7.95515 37.1258 7.96246 37.1672 7.98723C37.2086 8.01199 37.2384 8.05218 37.2502 8.09896C37.262 8.14574 37.2546 8.19527 37.2299 8.23666C37.2051 8.27805 37.1649 8.30791 37.1181 8.31967L36.1098 8.57228C36.0952 8.57577 36.0802 8.57756 36.0652 8.57762V8.57762Z" fill="#0F1011"/>
<path d="M37.1152 12.3166C37.1152 12.3166 38.5449 12.4541 39.5429 12.095C39.5429 12.095 39.5429 13.0357 38.4141 13.1388C37.2853 13.2419 37.1152 12.3166 37.1152 12.3166Z" fill="#F8FCFF"/>
<path d="M33.3452 6.58471C33.2437 14.2895 32.5011 17.2824 32.5011 17.2824C32.5011 17.2824 28.8529 12.8739 28.3022 8.20455C27.786 3.82757 30.9913 1.21088 33.1682 0.703247C41.4409 -1.22662 42.0153 4.80785 42.0153 4.80785C41.4812 6.86617 32.4493 8.1434 32.4493 8.1434" fill="#0F1011"/>
<path d="M34.9699 10.9566C35.0068 11.3884 34.8712 11.8173 34.5929 12.1495C34.3146 12.4818 33.9161 12.6904 33.4845 12.7297C33.0529 12.7691 32.6232 12.6361 32.2894 12.3597C31.9555 12.0833 31.7446 11.686 31.7027 11.2546C31.6794 11.0394 31.6997 10.8217 31.7622 10.6145C31.8248 10.4073 31.9284 10.2148 32.0669 10.0485C32.2054 9.88213 32.376 9.74536 32.5685 9.64631C32.7609 9.54725 32.9713 9.48794 33.1872 9.47189C34.356 9.42302 34.8874 10.0543 34.9699 10.9566Z" fill="#E98862"/>
<g opacity="0.15">
<path opacity="0.15" d="M38.6445 11.4023C38.6127 11.4022 38.5819 11.3908 38.5578 11.3701C38.5337 11.3494 38.5177 11.3207 38.5128 11.2893C38.5079 11.2579 38.5144 11.2258 38.5311 11.1987C38.5478 11.1716 38.5736 11.1514 38.6039 11.1417L39.3887 10.8928L38.8279 9.6719C38.8198 9.65587 38.8149 9.63836 38.8137 9.62041C38.8125 9.60246 38.8149 9.58445 38.8208 9.56746C38.8267 9.55046 38.836 9.53484 38.8481 9.52153C38.8602 9.50821 38.8748 9.49747 38.8912 9.48997C38.9075 9.48246 38.9252 9.47833 38.9432 9.47783C38.9612 9.47734 38.9791 9.48048 38.9958 9.48707C39.0126 9.49366 39.0278 9.50357 39.0406 9.5162C39.0534 9.52882 39.0636 9.54391 39.0704 9.56055L39.6955 10.9184C39.7035 10.9356 39.7077 10.9542 39.7079 10.9731C39.7081 10.992 39.7043 11.0107 39.6967 11.0281C39.6891 11.0454 39.678 11.0609 39.664 11.0736C39.6499 11.0862 39.6334 11.0958 39.6154 11.1016L38.6867 11.3954C38.6731 11.3999 38.6588 11.4023 38.6445 11.4023Z" fill="black"/>
</g>
<path d="M213.085 130H0C2.33496 124.045 6.64679 118.995 12.7251 117.496C21.6174 115.307 31.0264 121.326 39.8981 119.063C44.9387 117.779 48.9068 114.035 53.0766 110.927C68.8074 99.1984 90.3647 95.7325 108.979 101.94C118.709 105.183 127.575 110.855 137.543 113.267C150.431 116.386 163.91 113.8 177.164 113.374C190.072 112.958 208.568 118.217 213.085 130Z" fill="#F3F5FD"/>
<path d="M171.238 38.5866H167.357C166.394 38.5866 165.47 38.204 164.789 37.5229C164.108 36.8418 163.725 35.9181 163.725 34.9549V28.1089C159.605 30.4054 152.01 33.1212 139.598 32.5524C132.535 32.2293 126.914 30.8754 122.74 29.388C121.273 28.8673 119.833 28.2701 118.428 27.5989V34.9549C118.428 35.9181 118.045 36.8418 117.364 37.5229C116.683 38.204 115.759 38.5866 114.796 38.5866H110.915C109 38.5867 107.163 39.3475 105.809 40.7017C104.455 42.0558 103.694 43.8925 103.694 45.8075V124.174C103.694 125.719 104.308 127.201 105.4 128.294C106.493 129.386 107.975 130 109.52 130H172.633C173.398 130 174.155 129.849 174.862 129.556C175.569 129.264 176.211 128.835 176.752 128.294C177.293 127.753 177.722 127.11 178.015 126.403C178.308 125.697 178.458 124.939 178.458 124.174V45.8067C178.458 43.8918 177.697 42.0554 176.343 40.7014C174.989 39.3474 173.153 38.5867 171.238 38.5866Z" fill="#DEE8F5"/>
<path d="M159.413 29.388C155.239 30.8754 149.618 32.2293 142.555 32.5524C142.054 32.5754 140.101 32.5754 139.599 32.5524C132.536 32.2293 126.915 30.8754 122.741 29.388C121.273 28.8673 119.834 28.2701 118.428 27.5989V34.0905C123.011 36.1387 129.764 37.9705 139.252 37.9705H142.902C152.39 37.9705 159.143 36.1387 163.726 34.0905V27.5989C162.32 28.2701 160.881 28.8673 159.413 29.388V29.388Z" fill="#C1D8ED"/>
<path d="M46.1119 56.3591C51.4395 79.8284 56.2633 103.455 60.0701 127.222L54.719 128.323C48.8359 104.984 43.9417 81.3705 39.573 57.7042L46.1119 56.3591Z" fill="#E98862"/>
<path d="M35.1 57.8132C35.5892 81.1287 35.554 104.496 34.4938 127.796H29.0303C27.9707 104.497 27.9354 81.1284 28.4241 57.8132H35.1Z" fill="#E98862"/>
<path d="M41.5621 129.95C41.7129 129.949 41.8619 129.918 41.9999 129.857C42.1379 129.796 42.2618 129.707 42.364 129.596C42.4661 129.485 42.5443 129.354 42.5936 129.212C42.6429 129.069 42.6623 128.918 42.6505 128.768V128.768C42.6343 128.559 42.5588 128.36 42.4331 128.193C42.3073 128.026 42.1365 127.899 41.9407 127.826L35.4136 125.64C35.2871 125.598 35.1531 125.584 35.0208 125.599C34.8884 125.614 34.7608 125.657 34.6466 125.726C33.7493 126.348 32.6759 126.667 31.5843 126.634C30.7341 126.573 29.918 126.275 29.229 125.773C29.1685 125.724 29.095 125.692 29.0173 125.683C28.9395 125.673 28.8607 125.686 28.7899 125.72C28.7191 125.753 28.6594 125.806 28.6176 125.872C28.5758 125.939 28.5538 126.015 28.554 126.094V129.285C28.554 129.38 28.5725 129.473 28.6087 129.56C28.6448 129.647 28.6977 129.726 28.7644 129.792C28.8312 129.859 28.9103 129.911 28.9974 129.947C29.0846 129.983 29.1779 130.001 29.272 130.001L41.5621 129.95Z" fill="#C1D8ED"/>
<path d="M66.5924 129.95C66.7432 129.949 66.8922 129.918 67.0301 129.857C67.1681 129.796 67.292 129.707 67.3941 129.596C67.4963 129.485 67.5744 129.354 67.6238 129.212C67.6731 129.069 67.6925 128.918 67.6808 128.768V128.768C67.6645 128.559 67.589 128.36 67.4632 128.193C67.3374 128.026 67.1666 127.899 66.9707 127.825L60.4439 125.64C60.3174 125.598 60.1833 125.584 60.0509 125.599C59.9185 125.614 59.7908 125.657 59.6767 125.726C58.7794 126.348 57.7061 126.667 56.6146 126.634C55.7643 126.573 54.9481 126.276 54.259 125.774C54.1985 125.724 54.1251 125.693 54.0473 125.683C53.9696 125.674 53.8907 125.686 53.82 125.72C53.7492 125.754 53.6895 125.807 53.6477 125.873C53.606 125.939 53.584 126.016 53.5842 126.094V129.286C53.5842 129.38 53.6028 129.473 53.6389 129.56C53.6751 129.647 53.728 129.726 53.7947 129.793C53.8614 129.859 53.9406 129.912 54.0277 129.947C54.1148 129.983 54.2081 130.001 54.3023 130.001L66.5924 129.95Z" fill="#C1D8ED"/>
<path d="M25.0399 47.7461C25.0399 47.7461 22.0064 61.3305 22.0064 72.7551C22.0064 84.1797 18.5232 101.874 18.5232 101.874C18.5232 101.874 28.3947 100.278 35.0914 101.874C46.6298 104.625 56.9756 98.6346 56.9756 98.6346L45.3552 49.0012L25.0399 47.7461Z" fill="#262626"/>
<path d="M77.5516 35.0273C77.5516 35.0273 79.7435 33.9621 81.39 34.3707C83.0366 34.7792 82.2648 35.4882 81.0669 35.7403C79.869 35.9924 77.2368 36.4023 77.2368 36.4023" fill="#E98862"/>
<path d="M78.8317 34.9772C78.8317 34.9772 82.8955 34.5499 82.9379 35.5278C82.9379 35.5278 83.1158 38.5453 82.5641 39.0108C81.7306 39.7147 77.6025 39.1635 77.6025 39.1635L78.8317 34.9772Z" fill="#E98862"/>
<path d="M68.0892 39.9613H52.2056C51.7354 39.9613 51.2727 39.843 50.8602 39.6174C50.4476 39.3917 50.0984 39.0659 49.8448 38.6699L39.8096 23.0035L44.5316 19.9788L53.74 34.3536H68.0892V39.9613Z" fill="#F20089"/>
<path d="M46.6427 49.518C45.5241 52.0895 23.5388 53.1577 23.2451 48.6341C23.0581 45.7555 25.595 43.2426 25.595 37.6322C25.595 32.0218 20.4332 24.8572 24.639 20.6514C25.8593 19.4311 27.9665 18.6433 30.5351 18.6406C30.7274 20.1387 39.8226 20.144 39.8921 18.6753C40.2392 18.6807 40.5089 18.686 40.6772 18.694C49.5374 19.0759 45.644 29.1592 45.5586 36.5667C45.4544 45.2358 47.7963 46.869 46.6427 49.518Z" fill="#F20089"/>
<path d="M39.8921 18.6753C39.8227 20.144 39.0242 22.3044 36.5595 22.4672C33.2749 22.6835 30.7274 20.1387 30.5352 18.6406H30.5432C33.777 18.6406 38.0068 18.646 39.8921 18.6753Z" fill="#E98862"/>
<path d="M65.757 53.1796C74.6058 53.1796 81.7792 46.0062 81.7792 37.1574C81.7792 28.3086 74.6058 21.1353 65.757 21.1353C56.9082 21.1353 49.7349 28.3086 49.7349 37.1574C49.7349 46.0062 56.9082 53.1796 65.757 53.1796Z" fill="#0CBC8B"/>
<g opacity="0.29">
<path opacity="0.29" d="M65.757 47.544C71.4934 47.544 76.1436 42.8938 76.1436 37.1574C76.1436 31.421 71.4934 26.7708 65.757 26.7708C60.0206 26.7708 55.3704 31.421 55.3704 37.1574C55.3704 42.8938 60.0206 47.544 65.757 47.544Z" fill="white"/>
</g>
<path d="M62.3574 40.8673L63.3265 39.365C64.0942 39.9525 64.7661 40.2537 65.4804 40.2537C66.3368 40.2537 66.7133 39.8983 66.7133 39.2109C66.7133 37.6565 62.7254 37.6845 62.7254 34.9581C62.7254 33.2058 63.9393 32.0893 65.8537 32.0893C66.3974 32.0815 66.9363 32.192 67.4329 32.4134C67.9296 32.6347 68.3721 32.9615 68.7297 33.3711L67.6186 34.6441C67.0693 34.1444 66.6038 33.8817 65.9728 33.8817C65.2462 33.8817 64.8513 34.1754 64.8513 34.8534C64.8513 36.2941 68.8392 36.1683 68.8392 39.056C68.8392 40.7918 67.6909 42.0468 65.4799 42.0468C64.3351 42.0208 63.2335 41.6047 62.3574 40.8673ZM65.0147 30.6089H66.4885V32.7847H65.0147V30.6089ZM65.0147 41.1389H66.4885V43.5267H65.0147V41.1389Z" fill="white"/>
<path d="M82.563 39.0117C82.4881 39.0713 82.4043 39.1187 82.3147 39.1524C81.8359 39.2515 80.6283 38.9626 80.4347 38.6277C80.1196 38.0827 80.3151 36.1136 80.5931 35.399C80.854 34.7314 82.1534 35.011 82.324 35.0425C82.3293 35.0445 82.3347 35.046 82.3403 35.0468C82.6947 35.144 82.9278 35.2957 82.9377 35.529C82.9377 35.529 83.1166 38.5439 82.563 39.0117Z" fill="#E98862"/>
<path d="M47.1853 40.8322C47.1853 40.8322 47.8286 37.3196 50.3134 37.9308C51.8814 38.3167 56.4376 37.628 56.507 39.6414C56.5671 41.3884 52.2878 41.8538 50.8725 41.7083C49.603 41.5775 47.1853 40.8322 47.1853 40.8322Z" fill="#E98862"/>
<path d="M49.4041 37.8924C49.4041 37.8924 53.1006 37.3472 53.9266 37.698C54.6577 38.0089 52.8584 38.9798 52.8584 38.9798L49.4041 37.8924Z" fill="#E98862"/>
<path d="M50.5865 42.7829L34.0626 42.2788C33.5468 42.2631 33.0444 42.1106 32.6069 41.8368C32.1695 41.5631 31.8126 41.1779 31.573 40.7209L23.4146 25.165L28.571 22.4607L35.9396 36.5108L50.7636 36.9631L50.5865 42.7829Z" fill="#F20089"/>
<path d="M163.726 25.8735V29.2649C159.605 31.5614 152.011 34.2772 139.599 33.7084C132.536 33.3853 126.915 32.0314 122.741 30.544C121.273 30.0233 119.834 29.4261 118.428 28.7549V25.8735H163.726Z" fill="#DEE8F5"/>
<path d="M140.441 123.062H114.267C113.012 123.062 111.994 124.08 111.994 125.335V127.727C111.994 128.982 113.012 130 114.267 130H140.441C141.696 130 142.714 128.982 142.714 127.727V125.335C142.714 124.08 141.696 123.062 140.441 123.062Z" fill="#0CBC8B"/>
<path d="M136.366 116.124H110.192C108.937 116.124 107.919 117.141 107.919 118.397V120.788C107.919 122.044 108.937 123.062 110.192 123.062H136.366C137.621 123.062 138.639 122.044 138.639 120.788V118.397C138.639 117.141 137.621 116.124 136.366 116.124Z" fill="#0CBC8B"/>
<path d="M140.441 109.186H114.267C113.012 109.186 111.994 110.203 111.994 111.459V113.85C111.994 115.106 113.012 116.124 114.267 116.124H140.441C141.696 116.124 142.714 115.106 142.714 113.85V111.459C142.714 110.203 141.696 109.186 140.441 109.186Z" fill="#0CBC8B"/>
<path d="M138.403 102.373H112.23C110.974 102.373 109.957 103.391 109.957 104.646V107.038C109.957 108.293 110.974 109.311 112.23 109.311H138.403C139.659 109.311 140.677 108.293 140.677 107.038V104.646C140.677 103.391 139.659 102.373 138.403 102.373Z" fill="#0CBC8B"/>
<path d="M134.328 95.4351H108.155C106.899 95.4351 105.882 96.4528 105.882 97.7083V100.1C105.882 101.355 106.899 102.373 108.155 102.373H134.328C135.584 102.373 136.602 101.355 136.602 100.1V97.7083C136.602 96.4528 135.584 95.4351 134.328 95.4351Z" fill="#0CBC8B"/>
<path d="M138.403 88.4968H112.23C110.974 88.4968 109.957 89.5146 109.957 90.7701V93.1617C109.957 94.4172 110.974 95.435 112.23 95.435H138.403C139.659 95.435 140.677 94.4172 140.677 93.1617V90.7701C140.677 89.5146 139.659 88.4968 138.403 88.4968Z" fill="#0CBC8B"/>
<path d="M142.478 81.5122H116.305C115.049 81.5122 114.031 82.53 114.031 83.7855V86.1771C114.031 87.4325 115.049 88.4503 116.305 88.4503H142.478C143.734 88.4503 144.752 87.4325 144.752 86.1771V83.7855C144.752 82.53 143.734 81.5122 142.478 81.5122Z" fill="#0CBC8B"/>
<path d="M138.403 74.574H112.23C110.974 74.574 109.957 75.5918 109.957 76.8473V79.2388C109.957 80.4943 110.974 81.5121 112.23 81.5121H138.403C139.659 81.5121 140.677 80.4943 140.677 79.2388V76.8473C140.677 75.5918 139.659 74.574 138.403 74.574Z" fill="#0CBC8B"/>
<path d="M142.478 67.8564H116.305C115.049 67.8564 114.031 68.8742 114.031 70.1297V72.5213C114.031 73.7768 115.049 74.7946 116.305 74.7946H142.478C143.734 74.7946 144.752 73.7768 144.752 72.5213V70.1297C144.752 68.8742 143.734 67.8564 142.478 67.8564Z" fill="#0CBC8B"/>
<path d="M149.688 60.918H123.515C122.259 60.918 121.242 61.9358 121.242 63.1912V65.5828C121.242 66.8383 122.259 67.8561 123.515 67.8561H149.688C150.944 67.8561 151.962 66.8383 151.962 65.5828V63.1912C151.962 61.9358 150.944 60.918 149.688 60.918Z" fill="#0CBC8B"/>
<path d="M161.888 129.478C170.736 129.478 177.91 122.304 177.91 113.455C177.91 104.607 170.736 97.4333 161.888 97.4333C153.039 97.4333 145.865 104.607 145.865 113.455C145.865 122.304 153.039 129.478 161.888 129.478Z" fill="#0CBC8B"/>
<g opacity="0.29">
<path opacity="0.29" d="M161.888 123.842C167.624 123.842 172.274 119.192 172.274 113.455C172.274 107.719 167.624 103.069 161.888 103.069C156.151 103.069 151.501 107.719 151.501 113.455C151.501 119.192 156.151 123.842 161.888 123.842Z" fill="white"/>
</g>
<path d="M156.86 113.675L158.608 113.298C158.735 114.257 158.998 114.944 159.503 115.449C160.108 116.055 160.626 116.07 161.112 115.583C162.211 114.484 159.371 111.684 161.299 109.756C162.538 108.517 164.186 108.586 165.539 109.939C165.929 110.318 166.232 110.777 166.427 111.285C166.622 111.793 166.703 112.337 166.667 112.879L164.981 112.994C164.946 112.252 164.802 111.737 164.356 111.291C163.842 110.777 163.356 110.706 162.876 111.185C161.858 112.204 164.767 114.935 162.725 116.977C161.498 118.204 159.799 118.279 158.235 116.715C157.444 115.888 156.959 114.815 156.86 113.675V113.675ZM165.993 108.3L167.035 109.341L165.496 110.88L164.455 109.838L165.993 108.3ZM158.547 115.746L159.589 116.787L157.901 118.475L156.859 117.434L158.547 115.746Z" fill="white"/>
<path d="M168.172 91.9225L147.532 75.8276C146.542 75.0556 145.114 75.2323 144.342 76.2223L142.871 78.1083C142.099 79.0984 142.276 80.5268 143.266 81.2989L163.906 97.3938C164.896 98.1659 166.324 97.9891 167.096 96.9991L168.567 95.1131C169.339 94.1231 169.162 92.6946 168.172 91.9225Z" fill="#0CBC8B"/>
<path d="M177.302 90.2441L156.663 74.1491C155.672 73.3771 154.244 73.5538 153.472 74.5439L152.001 76.4298C151.229 77.4199 151.406 78.8484 152.396 79.6204L173.036 95.7153C174.026 96.4874 175.454 96.3107 176.227 95.3206L177.697 93.4346C178.469 92.4446 178.293 91.0161 177.302 90.2441Z" fill="#0CBC8B"/>
<path d="M167.599 23.7954C167.515 23.8819 167.388 24.0061 167.218 24.1607C164.275 26.0385 156.051 30.42 142.554 31.0374C142.053 31.0604 140.099 31.0604 139.598 31.0374C126.102 30.42 117.877 26.0385 114.934 24.1607C114.764 24.0064 114.637 23.8819 114.553 23.7954V29.8013C114.552 30.0222 114.609 30.2394 114.718 30.4316C114.827 30.6238 114.984 30.7844 115.173 30.8975C119.56 33.4987 127.199 36.4548 139.251 36.4548H142.901C154.953 36.4548 162.592 33.4987 166.979 30.8975C167.169 30.7844 167.326 30.6238 167.434 30.4316C167.543 30.2394 167.6 30.0222 167.599 29.8013V23.7954Z" fill="#DEE8F5"/>
<path d="M167.592 23.7003C167.592 26.5744 155.72 31.0283 141.075 31.0283C126.43 31.0283 114.554 25.4561 114.558 23.7003C114.571 19.6529 126.43 16.3721 141.075 16.3721C155.72 16.3721 167.592 19.6539 167.592 23.7003Z" fill="#C1D8ED"/>
<path d="M151.943 22.7842H130.209V24.6158H151.943V22.7842Z" fill="#DEE8F5"/>
</g>
<defs>
<clipPath id="clip0_255_1365">
<rect width="213.085" height="130" fill="white"/>
</clipPath>
</defs>
</svg>
