<svg width="99" height="130" viewBox="0 0 99 130" fill="none" xmlns="http://www.w3.org/2000/svg">
<g clip-path="url(#clip0_255_1265)">
<path d="M49.2037 130C76.3781 130 98.4073 107.971 98.4073 80.7964C98.4073 53.622 76.3781 31.5928 49.2037 31.5928C22.0292 31.5928 0 53.622 0 80.7964C0 107.971 22.0292 130 49.2037 130Z" fill="#367CFF"/>
<path opacity="0.86" d="M49.2037 130C76.3781 130 98.4073 107.971 98.4073 80.7964C98.4073 53.622 76.3781 31.5928 49.2037 31.5928C22.0292 31.5928 0 53.622 0 80.7964C0 107.971 22.0292 130 49.2037 130Z" fill="white"/>
<path opacity="0.1" d="M23.3006 81.5532L33.5572 96.1516L16.4083 99.0045L10.6646 91.2541L23.3006 81.5532Z" fill="#367CFF"/>
<path opacity="0.1" d="M89.3523 59.1039L82.46 53.3652L74.8018 64.2026L77.1974 66.9743L89.3523 59.1039Z" fill="#367CFF"/>
<path opacity="0.1" d="M18.8972 64.2026L25.2352 59.4712L30.5808 68.1574L24.4128 71.3973L18.8972 64.2026Z" fill="#367CFF"/>
<path opacity="0.1" d="M56.3025 116.675L63.5962 110.74L68.1008 116.675L59.9781 122.227L56.3025 116.675Z" fill="#367CFF"/>
<path opacity="0.1" d="M27.1016 73.7893L33.7204 68.9534L38.9998 75.8953L36.1281 78.8285L40.4055 84.3463L44.3606 81.5532L48.969 87.3826L40.4055 93.7005L27.1016 73.7893Z" fill="#367CFF"/>
<path d="M98.3347 83.4839L73.6852 100.173L85.0396 114.512C84.702 114.872 84.3584 115.227 84.0088 115.575L72.4865 101.024L52.466 115.949L61.3333 128.494C60.8228 128.624 60.309 128.745 59.7921 128.857L50.8547 116.211L38.3147 98.7247L16.3611 103.148L18.1176 118.936C17.5631 118.485 17.0195 118.021 16.4867 117.545L14.8542 102.869L0.273921 86.002C0.185852 85.1833 0.119529 84.3586 0.0749512 83.5279L15.8327 101.758L37.3753 97.4167L7.13953 55.2563C7.41352 54.8045 7.69512 54.3576 7.98434 53.9157L38.9535 97.0987L39.1231 97.0644L61.7144 81.168L45.712 60.3936L48.023 31.6082C48.416 31.5984 48.8096 31.5935 49.2037 31.5935C49.3016 31.5935 49.3995 31.5935 49.4973 31.5951L47.2206 59.9467L62.9164 80.3216L93.2984 58.9437C93.5202 59.3873 93.7344 59.8353 93.941 60.2876L39.8489 98.348L51.6142 114.753L72.7523 98.9957L72.7719 99.0202L98.3983 81.669C98.3885 82.277 98.3673 82.8805 98.3347 83.4839Z" fill="white"/>
<path d="M49.2024 2.09131C33.7151 2.09131 21.21 14.6095 21.21 30.0495C21.21 34.9046 23.0529 40.3731 24.6252 43.4524C29.7867 53.5668 48.8914 81.8481 48.8914 81.8481C48.9237 81.9021 48.9695 81.9469 49.0242 81.9779C49.0789 82.009 49.1408 82.0253 49.2037 82.0253C49.2667 82.0253 49.3285 82.009 49.3833 81.9779C49.438 81.9469 49.4838 81.9021 49.5161 81.8481C49.5161 81.8481 68.6206 53.5668 73.7821 43.4524C75.3538 40.3725 77.1974 34.9046 77.1974 30.0495C77.1974 14.6088 64.6921 2.09131 49.2049 2.09131H49.2024Z" fill="#367CFF"/>
<path opacity="0.12" d="M49.2024 2.09131C33.7151 2.09131 21.21 14.6095 21.21 30.0495C21.21 34.9046 23.0529 40.3731 24.6252 43.4524C29.7867 53.5668 48.8914 81.8481 48.8914 81.8481C48.9237 81.9021 48.9695 81.9469 49.0242 81.9779C49.0789 82.009 49.1408 82.0253 49.2037 82.0253C49.2667 82.0253 49.3285 82.009 49.3833 81.9779C49.438 81.9469 49.4838 81.9021 49.5161 81.8481C49.5161 81.8481 68.6206 53.5668 73.7821 43.4524C75.3538 40.3725 77.1974 34.9046 77.1974 30.0495C77.1974 14.6088 64.6921 2.09131 49.2049 2.09131H49.2024Z" fill="white"/>
<path d="M48.6009 6.47588C48.8018 6.47082 49.0008 6.47588 49.2029 6.47588C52.3066 6.47591 55.3793 7.09283 58.2425 8.29079C61.1057 9.48875 63.7022 11.2438 65.8812 13.4541C68.0601 15.6643 69.778 18.2856 70.9351 21.1656C72.0921 24.0455 72.6652 27.1267 72.621 30.2301C72.4447 42.8439 62.1501 53.1394 49.5357 53.3142C43.3571 53.3865 37.4001 51.0145 32.9623 46.715C28.5244 42.4154 25.9651 36.5365 25.8418 30.3586C25.7185 24.1808 28.0412 18.2044 32.304 13.7312C36.5667 9.25798 42.4243 6.65022 48.6009 6.47588V6.47588Z" fill="white"/>
<path d="M56.3025 0.371094C56.3025 0.371094 63.0781 0.453943 60.742 9.79151L60.1059 9.8225L58.8144 9.88545L56.3025 0.371094Z" fill="#0C0C0C"/>
<path d="M48.7371 19.5883C48.7687 19.5854 48.8935 25.4095 55.6633 25.1649C60.3501 24.9961 62.2086 20.1027 62.3158 20.1068C61.8161 19.9802 60.9737 19.7915 60.7545 19.6635C60.034 19.2395 59.1399 18.7928 58.9578 17.3546C58.8531 16.5257 59.2484 12.321 59.2094 11.4849L51.9741 12.8077C52.0059 14.5715 52.5491 18.6789 50.0623 19.3055C49.6486 19.4091 49.2045 19.5019 48.7371 19.5883Z" fill="#E98862"/>
<path opacity="0.52" d="M51.6833 17.6984C51.8098 17.3407 51.8967 16.9702 51.9423 16.5935C52.0547 15.7343 52.0727 14.8654 51.996 14.0023C53.4616 13.8621 54.8585 13.3137 56.0279 12.4192C56.1421 12.9163 56.7912 15.0939 56.5702 15.5538C56.152 16.4232 54.2949 17.7999 51.6833 17.6984Z" fill="#0C0C0C"/>
<path d="M53.3259 16.6694C56.162 16.467 59.5838 14.7396 59.7027 10.8968L59.8098 7.42937C59.9287 3.58664 58.0069 0.408988 54.3886 0.296945C50.7704 0.185066 47.9697 3.21626 47.8508 7.05948L47.8033 8.59449C47.7962 9.1218 47.825 9.64899 47.8896 10.1724C48.0501 11.557 48.2994 13.6625 49.2106 15.1002C50.0719 16.4574 51.5138 16.7982 53.3259 16.6694Z" fill="#E98862"/>
<path d="M59.4418 12.0605C60.5413 12.0946 61.469 10.9458 61.5031 9.84627C61.5372 8.74671 60.6645 8.11278 59.5649 8.07886L58.9755 8.79809L58.4963 12.0313L59.4418 12.0605Z" fill="#E98862"/>
<path d="M48.0369 11.3328C48.2355 11.5683 48.4899 11.7505 48.7769 11.8626C49.0639 11.9747 49.3744 12.0132 49.6801 11.9747C50.3337 11.8931 50.7677 12.1608 51.3136 12.1068C51.7718 12.0616 51.8518 11.8501 52.6331 11.8038C55.6524 11.6244 57.9172 11.4347 58.0648 7.64611L59.986 5.9397C59.986 5.9397 60.8447 16.438 55.1664 17.8335C51.6773 18.6911 48.4045 18.3773 47.9838 15.1001C47.6419 12.4374 48.0369 11.3328 48.0369 11.3328Z" fill="#0C0C0C"/>
<path d="M49.4671 9.14056C49.7134 9.14056 49.913 8.94093 49.913 8.69467C49.913 8.44841 49.7134 8.24878 49.4671 8.24878C49.2209 8.24878 49.0212 8.44841 49.0212 8.69467C49.0212 8.94093 49.2209 9.14056 49.4671 9.14056Z" fill="#0C0C0C"/>
<path d="M53.45 9.05731C53.6963 9.05731 53.8959 8.85767 53.8959 8.61142C53.8959 8.36516 53.6963 8.16553 53.45 8.16553C53.2038 8.16553 53.0042 8.36516 53.0042 8.61142C53.0042 8.85767 53.2038 9.05731 53.45 9.05731Z" fill="#0C0C0C"/>
<path d="M58.3797 10.2734C58.3797 10.2734 58.1073 4.82783 56.4642 4.46185C55.37 4.2182 52.6781 5.72776 50.2195 5.21207C49.1431 4.98668 48.1143 5.23507 48.0015 5.74309C47.9564 5.94418 47.1045 4.16014 48.8355 1.98924C50.2133 0.260488 54.6932 -0.225358 56.6863 0.385904C62.2045 2.07862 59.7873 8.32253 59.7873 8.32253L59.5057 10.1932L58.3797 10.2734Z" fill="#0C0C0C"/>
<path d="M60.8877 5.88234C62.5121 5.88234 63.8289 4.56553 63.8289 2.94117C63.8289 1.31681 62.5121 0 60.8877 0C59.2633 0 57.9465 1.31681 57.9465 2.94117C57.9465 4.56553 59.2633 5.88234 60.8877 5.88234Z" fill="#0C0C0C"/>
<path d="M51.3673 11.932H51.3601C51.0059 11.9221 50.4126 11.8658 50.4197 11.6006C50.4263 11.381 51.0944 9.02709 51.17 8.75946C51.1727 8.74749 51.1778 8.73619 51.185 8.72626C51.1922 8.71633 51.2013 8.70797 51.2119 8.7017C51.2224 8.69542 51.2341 8.69135 51.2463 8.68974C51.2584 8.68814 51.2708 8.68902 51.2826 8.69235C51.2944 8.69568 51.3054 8.70137 51.3149 8.70909C51.3245 8.71681 51.3323 8.72639 51.3381 8.73725C51.3438 8.7481 51.3472 8.76001 51.3482 8.77224C51.3491 8.78447 51.3476 8.79677 51.3436 8.80838C51.0471 9.85069 50.6047 11.4565 50.6003 11.6057C50.6329 11.6693 50.9984 11.7412 51.3652 11.7517C51.3891 11.7514 51.4121 11.7606 51.4293 11.7773C51.4464 11.7941 51.4561 11.8169 51.4564 11.8408C51.4567 11.8647 51.4475 11.8878 51.4308 11.9049C51.414 11.922 51.3912 11.9318 51.3673 11.932Z" fill="#0C0C0C"/>
<path d="M50.2881 7.1798C49.9219 7.07098 49.5332 7.06293 49.1628 7.15648C48.9807 7.20132 48.8063 7.27323 48.6455 7.3698C48.4863 7.46459 48.3396 7.57905 48.209 7.7105C48.1978 7.72054 48.1887 7.7327 48.1822 7.74627C48.1757 7.75984 48.1719 7.77456 48.1711 7.78959C48.1702 7.80462 48.1724 7.81967 48.1774 7.83387C48.1824 7.84807 48.1901 7.86115 48.2002 7.87237C48.2102 7.88358 48.2224 7.8927 48.2359 7.89922C48.2495 7.90573 48.2642 7.90951 48.2792 7.91033C48.2943 7.91116 48.3093 7.90902 48.3235 7.90403C48.3377 7.89904 48.3508 7.8913 48.362 7.88125L48.369 7.87538C48.4907 7.76569 48.6256 7.67172 48.7707 7.59568C48.9136 7.51995 49.0671 7.46629 49.2261 7.43651C49.5397 7.37509 49.8641 7.3976 50.1663 7.50174L50.1779 7.50598C50.2207 7.52173 50.2681 7.51979 50.3096 7.5006C50.351 7.48141 50.3832 7.44653 50.3989 7.40364C50.4147 7.36076 50.4127 7.31337 50.3935 7.27192C50.3744 7.23046 50.3395 7.19832 50.2966 7.18258L50.2881 7.1798Z" fill="#0C0C0C"/>
<path d="M52.9153 7.5031C53.206 7.36981 53.5267 7.31574 53.845 7.34637C54.0061 7.36061 54.1641 7.3991 54.3137 7.46053C54.4655 7.52216 54.6089 7.6026 54.7407 7.69995L54.748 7.70484C54.7601 7.71376 54.7739 7.72021 54.7885 7.72382C54.8031 7.72742 54.8182 7.72812 54.8331 7.72586C54.848 7.72361 54.8623 7.71844 54.8751 7.71067C54.888 7.70289 54.8992 7.69265 54.9081 7.68054C54.9171 7.66843 54.9235 7.65468 54.9271 7.64008C54.9307 7.62548 54.9314 7.6103 54.9292 7.59543C54.9269 7.58056 54.9217 7.56628 54.914 7.5534C54.9062 7.54053 54.896 7.52931 54.8838 7.52039C54.7412 7.40217 54.5841 7.30244 54.4164 7.22356C54.247 7.14305 54.0665 7.0884 53.8808 7.06145C53.5033 7.00439 53.1174 7.05014 52.7637 7.19388C52.7428 7.20256 52.7238 7.21526 52.7078 7.23127C52.6918 7.24728 52.6792 7.26628 52.6705 7.28718C52.6619 7.30809 52.6575 7.3305 52.6575 7.35312C52.6575 7.37574 52.662 7.39814 52.6706 7.41903C52.6793 7.43992 52.692 7.4589 52.708 7.47488C52.724 7.49087 52.743 7.50354 52.7639 7.51218C52.7848 7.52082 52.8073 7.52526 52.8299 7.52524C52.8525 7.52522 52.8749 7.52074 52.8958 7.51207L52.9041 7.50848L52.9153 7.5031Z" fill="#0C0C0C"/>
<path d="M33.3632 19.7463L33.5566 14.9573C33.5608 14.8521 33.5431 14.7471 33.5046 14.6491C33.466 14.5512 33.4075 14.4623 33.3327 14.3881C33.2579 14.314 33.1685 14.2563 33.0702 14.2186C32.9718 14.1809 32.8667 14.1641 32.7616 14.1693C32.5676 14.1848 32.3863 14.2718 32.2529 14.4134C32.1195 14.5551 32.0435 14.7412 32.0396 14.9358L31.9981 15.9632L30.6463 12.6732C30.5024 12.305 30.0901 11.945 29.6876 12.1337C29.5281 12.1963 29.3946 12.3111 29.3087 12.4594C29.2228 12.6077 29.1897 12.7806 29.2147 12.9502C29.2109 12.9506 29.2071 12.9515 29.2034 12.9526C29.2006 12.9539 29.1987 12.956 29.1961 12.9575L28.9743 12.3896C28.9331 12.2844 28.8691 12.1897 28.7867 12.1124C28.7043 12.0351 28.6057 11.9771 28.4981 11.9427C28.3905 11.9084 28.2766 11.8984 28.1646 11.9137C28.0527 11.9289 27.9456 11.9689 27.8511 12.0308C27.7043 12.1313 27.5965 12.2791 27.5456 12.4496C27.4948 12.6201 27.5041 12.8028 27.5719 12.9673L27.6656 13.2103C27.6599 13.2162 27.6553 13.2231 27.6519 13.2307C27.5503 13.0822 27.3991 12.9747 27.2255 12.9275C27.0519 12.8803 26.8671 12.8963 26.7042 12.9728C26.5285 13.0618 26.3927 13.2137 26.324 13.3984C26.2553 13.583 26.2588 13.7868 26.3337 13.969L26.5684 14.5691C26.5591 14.563 26.5484 14.5592 26.5373 14.558C26.5262 14.5568 26.515 14.5582 26.5046 14.5621C26.4925 14.5675 26.4822 14.5763 26.4749 14.5874C26.3476 14.4803 26.1887 14.4181 26.0226 14.4101C25.8565 14.4022 25.6923 14.4491 25.5554 14.5435C25.4136 14.6456 25.3104 14.7926 25.2625 14.9607C25.2147 15.1288 25.225 15.3081 25.2919 15.4696L27.2711 20.5345C27.5481 21.243 28.0303 21.8527 28.656 22.2854C29.2816 22.7181 30.0223 22.954 30.7829 22.9631V22.9631C31.4389 22.9708 32.072 22.7226 32.5477 22.271C33.0235 21.8195 33.3045 21.2002 33.3311 20.5448L33.3632 19.7463Z" fill="#E98862"/>
<g opacity="0.2">
<path opacity="0.2" d="M30.536 16.2124C30.5189 16.2189 30.5 16.2185 30.4832 16.2112C30.4665 16.204 30.4532 16.1904 30.4463 16.1735L29.1647 13.044C29.1611 13.0355 29.1592 13.0263 29.1592 13.0171C29.1591 13.0078 29.1609 12.9986 29.1645 12.9901C29.168 12.9815 29.1732 12.9737 29.1797 12.9672C29.1863 12.9607 29.1941 12.9555 29.2026 12.952C29.2112 12.9485 29.2204 12.9467 29.2296 12.9468C29.2389 12.9468 29.2481 12.9487 29.2566 12.9524C29.2651 12.956 29.2728 12.9613 29.2793 12.9679C29.2857 12.9746 29.2908 12.9824 29.2942 12.991L30.5758 16.1205C30.5793 16.1291 30.581 16.1382 30.581 16.1474C30.581 16.1566 30.5791 16.1657 30.5755 16.1742C30.572 16.1826 30.5668 16.1903 30.5602 16.1968C30.5537 16.2033 30.546 16.2084 30.5374 16.2119L30.536 16.2124Z" fill="#0C0C0C"/>
</g>
<g opacity="0.2">
<path opacity="0.2" d="M29.1712 16.8156C29.1542 16.8221 29.1352 16.8217 29.1185 16.8144C29.1017 16.8072 29.0885 16.7937 29.0815 16.7768L27.6512 13.2842C27.6478 13.2757 27.646 13.2666 27.646 13.2574C27.646 13.2483 27.6479 13.2392 27.6514 13.2307C27.655 13.2222 27.6601 13.2145 27.6667 13.2081C27.6732 13.2016 27.6809 13.1965 27.6894 13.193C27.7066 13.1866 27.7256 13.187 27.7426 13.1941C27.7596 13.2012 27.7732 13.2144 27.7807 13.2312L29.211 16.7238C29.218 16.741 29.2179 16.7602 29.2107 16.7774C29.2036 16.7945 29.1899 16.8081 29.1727 16.8151L29.1712 16.8156Z" fill="#0C0C0C"/>
</g>
<g opacity="0.2">
<path opacity="0.2" d="M27.697 17.4777C27.6799 17.4842 27.661 17.4838 27.6442 17.4765C27.6275 17.4693 27.6142 17.4557 27.6073 17.4388L26.4657 14.6529C26.4622 14.6444 26.4604 14.6353 26.4604 14.6261C26.4605 14.6169 26.4623 14.6078 26.4659 14.5993C26.4695 14.5909 26.4747 14.5832 26.4812 14.5767C26.4877 14.5702 26.4955 14.5651 26.504 14.5616C26.5125 14.5581 26.5216 14.5564 26.5308 14.5564C26.54 14.5564 26.5491 14.5583 26.5576 14.5619C26.5661 14.5654 26.5738 14.5706 26.5802 14.5771C26.5867 14.5837 26.5918 14.5914 26.5953 14.5999L27.7369 17.3858C27.744 17.403 27.7439 17.4223 27.7367 17.4394C27.7296 17.4565 27.7159 17.4701 27.6988 17.4772L27.697 17.4777Z" fill="#0C0C0C"/>
</g>
<path d="M50.582 12.9097C51.651 12.9807 52.7133 12.6933 53.6008 12.0931C53.6316 12.0727 53.6676 12.0614 53.7045 12.0606C53.7415 12.0598 53.778 12.0695 53.8096 12.0885C53.8413 12.1076 53.867 12.1352 53.8836 12.1682C53.9003 12.2012 53.9072 12.2383 53.9036 12.2751C53.8324 12.9067 53.5202 14.0679 52.1954 14.2159C51.34 14.3113 50.7201 13.6543 50.4078 13.2176C50.3864 13.1873 50.3741 13.1516 50.3723 13.1146C50.3705 13.0775 50.3792 13.0408 50.3974 13.0085C50.4157 12.9763 50.4427 12.9498 50.4754 12.9323C50.508 12.9148 50.545 12.907 50.582 12.9097V12.9097Z" fill="white"/>
<path d="M71.3847 26.0848C70.7427 24.2599 70.2243 23.3498 69.5649 22.6301C68.6624 21.645 67.305 20.6751 64.7878 20.235C63.25 19.9675 60.9322 19.7268 60.9322 19.7268C60.9321 19.7309 60.9317 19.735 60.9311 19.739C60.9043 19.9809 60.4255 23.7021 55.8766 23.7394C49.6085 23.7918 50.0587 19.4861 50.0453 19.3101C50.0464 19.3067 50.0464 19.3044 50.0453 19.3044C48.1008 19.2287 43.2524 19.1852 41.3001 21.0951C41.0954 21.2938 40.9069 21.5085 40.7363 21.737L40.7095 21.7207L36.2341 28.6012L35.1163 19.4649L33.3636 19.7457L27.675 20.6572L27.3462 20.7096L25.3193 21.0357L26.0258 26.5117L27.6448 39.0655C29.2247 42.7705 31.7313 46.0066 34.9236 48.4626C36.2446 46.5983 38.43 43.3824 40.6992 40.0116C40.7348 39.9581 40.7705 39.9046 40.8072 39.8511V39.8523C40.8072 39.889 40.8083 39.9268 40.8095 39.9648C40.815 40.2055 40.8217 40.4785 40.8273 40.7793C40.8808 43.5417 40.9354 48.6052 40.9799 51.8334C45.0192 53.3462 49.3983 53.7118 53.6325 52.8897C57.8667 52.0677 61.7908 50.0899 64.9705 47.1755C64.9928 47.1566 65.014 47.1365 65.0357 47.1153C65.0781 47.0775 65.1205 47.0385 65.1616 46.9995C67.337 44.9703 69.1094 42.5484 70.3856 39.8611C71.7955 36.8904 72.5571 33.6537 72.6199 30.366V30.3648L71.3847 26.0848Z" fill="#F20089"/>
<path d="M65.1605 46.9987C65.1194 47.0377 65.077 47.0767 65.0346 47.1145C65.0136 47.1357 64.9924 47.1558 64.9694 47.1747L63.7604 41.0226L63.7593 41.0159L62.0305 32.2228L62.2489 32.166L65.1605 46.9987Z" fill="#0C0C0C"/>
<path d="M40.8378 40.7796C40.8096 40.7785 40.7828 40.7668 40.7628 40.7468C40.7428 40.7269 40.7311 40.7002 40.7298 40.672L40.5062 35.7558C40.5055 35.741 40.5078 35.7262 40.5128 35.7123C40.5179 35.6984 40.5256 35.6856 40.5356 35.6747C40.5456 35.6637 40.5576 35.6549 40.571 35.6486C40.5844 35.6423 40.5989 35.6387 40.6137 35.6381C40.6285 35.6374 40.6433 35.6396 40.6572 35.6447C40.6711 35.6497 40.6839 35.6574 40.6948 35.6674C40.7058 35.6774 40.7146 35.6894 40.7209 35.7028C40.7272 35.7162 40.7308 35.7307 40.7315 35.7455L40.9551 40.6619C40.9557 40.6767 40.9535 40.6914 40.9485 40.7054C40.9434 40.7193 40.9357 40.732 40.9257 40.743C40.9157 40.7539 40.9037 40.7627 40.8903 40.769C40.8769 40.7753 40.8624 40.7788 40.8476 40.7795C40.8435 40.7796 40.8404 40.7798 40.8378 40.7796Z" fill="#0C0C0C"/>
</g>
<defs>
<clipPath id="clip0_255_1265">
<rect width="98.4072" height="130" fill="white"/>
</clipPath>
</defs>
</svg>
