<svg width="136" height="130" viewBox="0 0 136 130" fill="none" xmlns="http://www.w3.org/2000/svg">
<path opacity="0.03" d="M21.2847 130C7.10709 130 -3.18132 116.349 0.903278 102.773C3.21315 95.0949 7.80212 87.6036 16.529 83.0598C40.4103 70.6258 38.3066 74.0352 49.5634 53.141C60.8202 32.2467 91.3297 27.29 107.316 42.008C129.927 62.825 114.718 79.4087 129.027 93.7174C129.176 93.8666 129.323 94.0165 129.468 94.1672C142.397 107.591 132.668 130 114.031 130H21.2847Z" fill="#292A2E"/>
<path d="M81.8048 56.3144V45.1775H28.5813V56.3143C28.5819 62.1378 30.492 67.8005 34.019 72.4345C37.5459 77.0685 42.4951 80.4182 48.108 81.9702C48.9319 82.2014 49.6576 82.6957 50.1745 83.3777C50.6914 84.0597 50.9711 84.892 50.9711 85.7477C50.9711 86.6034 50.6914 87.4357 50.1745 88.1177C49.6576 88.7996 48.9319 89.2939 48.108 89.5252C42.4949 91.0772 37.5456 94.4269 34.0186 99.0611C30.4917 103.695 28.5816 109.358 28.5813 115.182V126.319H81.8048V115.182C81.8042 109.358 79.8941 103.696 76.3671 99.0617C72.8402 94.4277 67.891 91.078 62.2781 89.526C61.4541 89.2949 60.7283 88.8006 60.2113 88.1186C59.6944 87.4366 59.4145 86.6043 59.4145 85.7485C59.4145 84.8927 59.6944 84.0604 60.2113 83.3784C60.7283 82.6964 61.4541 82.2022 62.2781 81.971C67.8911 80.4191 72.8403 77.0694 76.3672 72.4354C79.8942 67.8014 81.8043 62.1386 81.8048 56.3151" fill="#367CFF"/>
<path opacity="0.8" d="M81.8048 56.3144V45.1775H28.5813V56.3143C28.5819 62.1378 30.492 67.8005 34.019 72.4345C37.5459 77.0685 42.4951 80.4182 48.108 81.9702C48.9319 82.2014 49.6576 82.6957 50.1745 83.3777C50.6914 84.0597 50.9711 84.892 50.9711 85.7477C50.9711 86.6034 50.6914 87.4357 50.1745 88.1177C49.6576 88.7996 48.9319 89.2939 48.108 89.5252C42.4949 91.0772 37.5456 94.4269 34.0186 99.0611C30.4917 103.695 28.5816 109.358 28.5813 115.182V126.319H81.8048V115.182C81.8042 109.358 79.8941 103.696 76.3671 99.0617C72.8402 94.4277 67.891 91.078 62.2781 89.526C61.4541 89.2949 60.7283 88.8006 60.2113 88.1186C59.6944 87.4366 59.4145 86.6043 59.4145 85.7485C59.4145 84.8927 59.6944 84.0604 60.2113 83.3784C60.7283 82.6964 61.4541 82.2022 62.2781 81.971C67.8911 80.4191 72.8403 77.0694 76.3672 72.4354C79.8942 67.8014 81.8043 62.1386 81.8048 56.3151" fill="white"/>
<path d="M81.9729 126.487H28.4131V115.182C28.4223 109.324 30.3478 103.629 33.8959 98.9676C37.4439 94.3059 42.4197 90.933 48.0639 89.3635C48.8524 89.1422 49.5469 88.6691 50.0416 88.0164C50.5363 87.3636 50.804 86.5671 50.804 85.7481C50.804 84.9291 50.5363 84.1326 50.0416 83.4798C49.5469 82.8271 48.8524 82.354 48.0639 82.1326C42.4198 80.5631 37.4441 77.1902 33.896 72.5285C30.348 67.8669 28.4224 62.1725 28.4131 56.3142V45.0093H81.9729V56.3143C81.9637 62.1725 80.0382 67.8669 76.4903 72.5285C72.9423 77.1901 67.9668 80.5631 62.3227 82.1326C61.5342 82.354 60.8397 82.8271 60.345 83.4798C59.8503 84.1326 59.5826 84.9291 59.5826 85.7481C59.5826 86.5671 59.8503 87.3636 60.345 88.0164C60.8397 88.6691 61.5342 89.1422 62.3227 89.3635C67.9668 90.9332 72.9423 94.3061 76.4903 98.9678C80.0382 103.629 81.9637 109.324 81.9729 115.182V126.487ZM28.75 126.151H81.6366V115.182C81.6275 109.397 79.7263 103.775 76.2229 99.1714C72.7196 94.5683 67.8066 91.2377 62.2335 89.6877C61.3739 89.4468 60.6167 88.9315 60.0773 88.2202C59.538 87.5089 59.246 86.6408 59.246 85.7481C59.246 84.8554 59.538 83.9873 60.0773 83.276C60.6167 82.5647 61.3739 82.0494 62.2335 81.8085C67.8066 80.2586 72.7196 76.928 76.2229 72.3249C79.7263 67.7218 81.6275 62.099 81.6366 56.3143V45.3455H28.7493V56.3142C28.7585 62.0989 30.6599 67.7218 34.1633 72.3249C37.6668 76.928 42.5799 80.2586 48.1532 81.8085C49.0126 82.0495 49.7697 82.5649 50.309 83.2761C50.8483 83.9874 51.1402 84.8555 51.1402 85.7481C51.1402 86.6407 50.8483 87.5088 50.309 88.2201C49.7697 88.9313 49.0126 89.4467 48.1532 89.6877C42.5799 91.2375 37.6667 94.5681 34.1632 99.1712C30.6598 103.774 28.7584 109.397 28.7493 115.182L28.75 126.151Z" fill="#292A2E"/>
<path d="M84.8968 43.1501C84.897 43.6799 84.6897 44.1887 84.3193 44.5675C83.9489 44.9462 83.4448 45.1648 82.9151 45.1764C82.8997 45.1774 82.8852 45.1774 82.8696 45.1774H27.6069C27.5912 45.1774 27.5768 45.1774 27.5613 45.1764C27.0277 45.1645 26.5204 44.9426 26.1494 44.559C25.7784 44.1753 25.5737 43.6608 25.5797 43.1272C25.5857 42.5935 25.8019 42.0838 26.1815 41.7086C26.561 41.3333 27.0732 41.123 27.6069 41.123H82.8689C83.1352 41.123 83.3988 41.1753 83.6449 41.2772C83.8909 41.379 84.1145 41.5283 84.3028 41.7165C84.4911 41.9048 84.6405 42.1282 84.7424 42.3742C84.8443 42.6202 84.8968 42.8839 84.8968 43.1501V43.1501Z" fill="#292A2E"/>
<path d="M56.1334 107.637V83.5663C56.1129 82.6518 56.3931 81.756 56.9311 81.0162C57.469 80.2765 58.235 79.7338 59.1112 79.4716C68.5286 76.8801 77.2897 68.4323 77.7203 58.7286C77.7432 58.2083 77.286 57.8655 76.7652 57.8655H33.6202C33.0991 57.8655 32.6423 58.2083 32.6651 58.7286C33.0957 68.4323 41.8569 76.8801 51.2742 79.4716C52.607 79.8403 54.2527 81.4734 54.2527 83.6266V107.639C54.2527 109.37 53.6006 110.841 52.3763 112.065C51.3654 113.076 36.142 126.319 36.142 126.319H74.244C74.244 126.319 58.8799 112.925 58.0339 112.078C56.8094 110.855 56.1334 109.368 56.1334 107.637Z" fill="#FAFAFA"/>
<path d="M84.9112 127.816C84.9114 128.346 84.7041 128.855 84.3336 129.233C83.9632 129.612 83.4591 129.831 82.9295 129.842C82.914 129.843 82.8995 129.843 82.8841 129.843H27.6213C27.6059 129.843 27.5914 129.843 27.5759 129.842C27.0424 129.83 26.5351 129.608 26.1641 129.225C25.7931 128.841 25.5884 128.327 25.5944 127.793C25.6003 127.259 25.8165 126.75 26.196 126.374C26.5755 125.999 27.0877 125.789 27.6213 125.789H82.8841C83.4217 125.789 83.9373 126.002 84.3174 126.383C84.6976 126.763 84.9112 127.278 84.9112 127.816V127.816Z" fill="#292A2E"/>
<path d="M98.629 129.72C111.677 129.72 122.255 119.143 122.255 106.094C122.255 93.046 111.677 82.4683 98.629 82.4683C85.5807 82.4683 75.0029 93.046 75.0029 106.094C75.0029 119.143 85.5807 129.72 98.629 129.72Z" fill="white"/>
<path d="M105.521 128.818C92.9911 132.618 79.7055 125.516 75.9052 112.986C72.1049 100.456 79.207 87.1707 91.737 83.3711C104.267 79.5715 117.553 86.6722 121.353 99.2022C125.152 111.732 118.051 125.018 105.521 128.818ZM91.8066 83.5999C79.4032 87.3617 72.3727 100.513 76.1347 112.917C79.8967 125.32 93.0481 132.351 105.452 128.589C117.855 124.827 124.885 111.675 121.124 99.2718C117.362 86.8684 104.21 79.8379 91.8066 83.5999Z" fill="#292A2E"/>
<path opacity="0.45" d="M98.6291 126.895C110.117 126.895 119.43 117.582 119.43 106.094C119.43 94.6063 110.117 85.2935 98.6291 85.2935C87.1412 85.2935 77.8284 94.6063 77.8284 106.094C77.8284 117.582 87.1412 126.895 98.6291 126.895Z" fill="#367CFF"/>
<path d="M98.6291 107.345C99.3198 107.345 99.8798 106.785 99.8798 106.094C99.8798 105.404 99.3198 104.844 98.6291 104.844C97.9384 104.844 97.3784 105.404 97.3784 106.094C97.3784 106.785 97.9384 107.345 98.6291 107.345Z" fill="#292A2E"/>
<path d="M114.047 114.434C114.032 114.439 114.016 114.441 114.001 114.439C113.985 114.437 113.97 114.433 113.956 114.425L98.5725 106.2C98.5534 106.19 98.5374 106.175 98.5262 106.156C98.515 106.137 98.5091 106.116 98.5091 106.094L98.5039 93.9668C98.5039 93.935 98.5165 93.9045 98.539 93.882C98.5615 93.8595 98.592 93.8469 98.6238 93.8469C98.6556 93.8469 98.6861 93.8595 98.7086 93.882C98.731 93.9045 98.7437 93.935 98.7437 93.9668L98.7489 106.023L114.069 114.214C114.09 114.225 114.107 114.242 114.118 114.263C114.129 114.284 114.134 114.308 114.132 114.332C114.129 114.355 114.12 114.378 114.105 114.396C114.09 114.414 114.07 114.428 114.047 114.435V114.434Z" fill="#292A2E"/>
<path d="M35.9888 72.1804C35.9888 72.1804 35.4979 74.7255 33.1149 74.8674C30.7319 75.0093 31.2487 76.9078 31.2487 76.9078H40.3554V72.3578L35.9888 72.1804Z" fill="#2D00F7"/>
<path d="M41.1847 64.5245C41.1847 64.5245 41.8676 67.025 39.7919 68.2041C37.7163 69.3832 39.0186 70.8588 39.0186 70.8588L47.1894 66.8389L45.1812 62.7563L41.1847 64.5245Z" fill="#2D00F7"/>
<path d="M40.32 66.1779L34.1629 42.9462C33.6955 40.3798 34.3983 39.2673 35.4824 38.1866C37.3859 36.288 45.2733 32.2469 45.2733 32.2469L54.7357 32.2212C57.2448 32.2212 59.7122 34.6953 59.7122 37.2043C59.7122 39.7132 57.1614 41.841 54.6516 41.841L42.9992 43.0046L46.1578 64.2763L40.32 66.1779Z" fill="#262626"/>
<path d="M46.1578 64.2754L44.9144 55.9011L38.6147 59.744L40.32 66.1779L46.1578 64.2754Z" fill="#0C0C0C"/>
<path d="M47.5859 36.948C47.5859 36.948 43.608 37.8345 39.6685 41.774C37.28 44.1626 37.4758 48.4851 37.8341 56.7984L41.7469 51.0191L46.0384 43.2791L47.5859 36.948Z" fill="#0C0C0C"/>
<path d="M61.3585 32.2182L54.9325 32.188L54.9299 32.2721H52.9841C52.9841 32.2721 48.1101 36.7573 44.1857 39.5836C41.3313 41.6393 39.59 43.5991 39.4394 45.7352C39.072 50.9422 34.9294 73.1497 34.9294 73.1497L41.164 74.0937L46.635 47.5541C46.635 47.5541 55.1904 43.6102 57.1692 42.2377C59.0325 40.9453 60.3488 40.4456 60.9653 39.0352C62.0304 36.5998 61.3585 32.2182 61.3585 32.2182Z" fill="#262626"/>
<path d="M54.1493 33.837L43.7244 33.975L49.5723 37.4678L54.439 34.955C54.5563 34.8921 54.6492 34.7915 54.7026 34.6695C54.756 34.5475 54.7668 34.4111 54.7334 34.2822C54.7 34.1532 54.6243 34.0393 54.5184 33.9585C54.4124 33.8778 54.2825 33.835 54.1493 33.837V33.837Z" fill="#292A2E"/>
<path opacity="0.2" d="M54.1493 33.837L43.7244 33.975L49.5723 37.4678L54.439 34.955C54.5563 34.8921 54.6492 34.7915 54.7026 34.6695C54.756 34.5475 54.7668 34.4111 54.7334 34.2822C54.7 34.1532 54.6243 34.0393 54.5184 33.9585C54.4124 33.8778 54.2825 33.835 54.1493 33.837V33.837Z" fill="white"/>
<path d="M43.7842 15.1345L40.8358 24.6887L34.9297 32.4215L38.3798 36.3818L45.4062 28.5395C45.73 28.2836 45.9832 27.9493 46.142 27.5684L46.2516 27.3036L50.3096 17.4841L43.7842 15.1345Z" fill="#2D00F7"/>
<path d="M48.3265 4.99249C48.3265 4.99249 47.1384 4.09571 46.844 2.03147C46.616 0.433106 48.0903 1.46859 48.0903 1.46859C48.0903 1.46859 47.9375 0.316259 48.7768 0.430585C49.6161 0.54491 50.0867 1.75558 50.0867 1.75558" fill="#0C0C0C"/>
<path d="M53.1169 0.56543C53.1169 0.56543 57.2831 1.01214 55.777 6.65744L55.4083 6.68216L54.66 6.73259" fill="#0C0C0C"/>
<path d="M49.0242 12.5533C49.0425 12.5509 49.2458 15.9237 53.1639 15.63C55.8764 15.4267 56.8435 12.5489 56.9057 12.5489C56.6132 12.4867 56.2519 12.3924 56.1081 12.3599C55.7951 12.2873 55.5116 12.1211 55.2954 11.8833C55.0791 11.6456 54.9404 11.3477 54.8976 11.0292C54.8183 10.5512 54.9529 8.10552 54.9114 7.62183L50.7478 8.55105C50.806 9.57258 51.2132 11.9408 49.7859 12.3599C49.5486 12.429 49.2928 12.4927 49.0242 12.5533Z" fill="#E98862"/>
<path opacity="0.52" d="M50.6899 11.392C50.7551 11.1817 50.7971 10.965 50.8152 10.7457C50.861 10.2452 50.8519 9.74116 50.788 9.24264C51.6343 9.12824 52.4315 8.77875 53.0891 8.23389C53.1664 8.5197 53.5916 9.76702 53.4739 10.0384C53.251 10.552 52.2054 11.392 50.6899 11.392Z" fill="#0C0C0C"/>
<path d="M51.5488 10.7242C53.1916 10.5769 55.1575 9.53908 55.1859 7.3094L55.2114 5.29745C55.2399 3.06777 54.0917 1.24563 51.9924 1.21857C49.893 1.1915 48.3007 2.97951 48.2724 5.20969L48.261 6.10075C48.2627 6.40667 48.2852 6.71213 48.3282 7.01501C48.436 7.81613 48.6028 9.03453 49.1467 9.85851C49.6596 10.6358 50.4994 10.8183 51.5488 10.7242Z" fill="#E98862"/>
<path opacity="0.52" d="M50.7867 8.68629C50.4477 8.70166 50.1099 8.6371 49.8005 8.49782C49.7881 8.49195 49.7785 8.48153 49.7737 8.46874C49.7689 8.45595 49.7691 8.44179 49.7745 8.42921C49.7799 8.41663 49.7899 8.40662 49.8025 8.40126C49.8151 8.39591 49.8292 8.39562 49.842 8.40048C50.5088 8.68478 51.1142 8.64308 51.5927 8.2801C51.6023 8.27245 51.6124 8.26532 51.6228 8.25875C51.635 8.25175 51.6495 8.24988 51.663 8.25355C51.6766 8.25722 51.6882 8.26614 51.6952 8.27833C51.7022 8.29053 51.704 8.30501 51.7004 8.31858C51.6967 8.33215 51.6878 8.34371 51.6756 8.35071C51.6717 8.35306 51.6655 8.35794 51.6568 8.3645C51.4053 8.55601 51.1023 8.66806 50.7867 8.68629Z" fill="#0C0C0C"/>
<path opacity="0.52" d="M50.8026 9.18869C50.7414 9.19241 50.68 9.19095 50.619 9.18432C50.605 9.18285 50.5922 9.17589 50.5833 9.16496C50.5745 9.15404 50.5704 9.14004 50.5718 9.12606C50.5733 9.11209 50.5803 9.09926 50.5912 9.09042C50.6021 9.08158 50.6161 9.07743 50.6301 9.07891C50.7261 9.09657 50.8248 9.09355 50.9195 9.07004C51.0143 9.04652 51.1029 9.00306 51.1795 8.94256C51.1894 8.93261 51.2029 8.92702 51.2169 8.927C51.231 8.92699 51.2445 8.93255 51.2544 8.94247C51.2644 8.95239 51.27 8.96586 51.27 8.9799C51.27 8.99395 51.2644 9.00743 51.2545 9.01737C51.1282 9.12499 50.9685 9.18553 50.8026 9.18869V9.18869Z" fill="#0C0C0C"/>
<path d="M48.9656 6.52863C49.1084 6.52863 49.2242 6.41286 49.2242 6.27005C49.2242 6.12724 49.1084 6.01147 48.9656 6.01147C48.8228 6.01147 48.707 6.12724 48.707 6.27005C48.707 6.41286 48.8228 6.52863 48.9656 6.52863Z" fill="#0C0C0C"/>
<path d="M51.4922 6.37018C51.635 6.37018 51.7508 6.25441 51.7508 6.1116C51.7508 5.9688 51.635 5.85303 51.4922 5.85303C51.3494 5.85303 51.2336 5.9688 51.2336 6.1116C51.2336 6.25441 51.3494 6.37018 51.4922 6.37018Z" fill="#0C0C0C"/>
<path d="M55.0467 7.98713C55.6848 7.99537 56.2107 7.31934 56.2187 6.6813C56.2268 6.04327 55.7144 5.685 55.0755 5.67676L54.7416 6.10094L54.4978 7.98108L55.0467 7.98713Z" fill="#E98862"/>
<path d="M54.4122 6.96209C54.4122 6.96209 54.1967 3.80706 53.2401 3.6122C52.6029 3.48241 51.0578 4.38558 49.6265 4.11321C49.0004 3.99384 48.4059 4.14886 48.3456 4.44459C48.3216 4.56227 47.9315 2.87884 48.912 1.60159C49.6926 0.584771 52.2474 0.297613 53.4097 0.631173C56.6279 1.55435 55.2078 5.81514 55.2078 5.81514L55.0644 6.90291L54.4122 6.96209Z" fill="#0C0C0C"/>
<g opacity="0.52">
<path opacity="0.52" d="M50.4009 7.94178H50.3969C50.1913 7.93977 49.8466 7.91337 49.8481 7.75953C49.8495 7.6321 50.2121 6.25986 50.2535 6.10384C50.2581 6.09165 50.267 6.0816 50.2786 6.07564C50.2902 6.06968 50.3035 6.06824 50.3161 6.0716C50.3287 6.07495 50.3396 6.08286 50.3467 6.09379C50.3537 6.10472 50.3565 6.11789 50.3544 6.13074C50.1931 6.73851 49.9532 7.67396 49.9522 7.76054C50.0922 7.82175 50.245 7.848 50.3974 7.83704C50.4113 7.83664 50.4247 7.84176 50.4348 7.85129C50.4449 7.86081 50.4508 7.87395 50.4512 7.88781C50.4516 7.90168 50.4465 7.91514 50.437 7.92523C50.4274 7.93532 50.4143 7.94121 50.4004 7.94161L50.4009 7.94178Z" fill="#0C0C0C"/>
</g>
<path d="M49.6996 4.86805C49.4835 4.80863 49.2555 4.80863 49.0394 4.86805C48.9332 4.89661 48.832 4.94093 48.7389 4.99952C48.6471 5.05702 48.5628 5.12581 48.4881 5.2043C48.4743 5.21829 48.4664 5.23708 48.4661 5.25675C48.4658 5.27642 48.4731 5.29545 48.4864 5.30987C48.4998 5.32429 48.5182 5.33299 48.5379 5.33415C48.5575 5.33531 48.5768 5.32885 48.5918 5.3161L48.5964 5.31207C48.6654 5.24804 48.7422 5.19297 48.825 5.14815C48.9064 5.10367 48.9939 5.0717 49.0848 5.05332C49.2636 5.01593 49.4492 5.02631 49.6228 5.08342L49.6302 5.08594C49.6588 5.09606 49.6903 5.09439 49.7177 5.08129C49.7452 5.06819 49.7662 5.04473 49.7764 5.01608C49.7865 4.98744 49.7848 4.95594 49.7717 4.92852C49.7586 4.90111 49.7352 4.88002 49.7065 4.8699L49.6996 4.86805Z" fill="#0C0C0C"/>
<path d="M51.2299 4.99785C51.3943 4.91805 51.5769 4.88324 51.7591 4.89697C51.8517 4.90294 51.9428 4.92295 52.0293 4.95632C52.1173 4.98968 52.2007 5.03396 52.2776 5.08813L52.2827 5.09132C52.2992 5.10208 52.3192 5.10603 52.3385 5.10234C52.3579 5.09865 52.3751 5.0876 52.3864 5.07152C52.3978 5.05545 52.4025 5.03558 52.3996 5.01611C52.3966 4.99663 52.3862 4.97906 52.3706 4.96708C52.2862 4.89912 52.1935 4.84212 52.0947 4.79744C51.9947 4.75175 51.8885 4.72132 51.7795 4.70716C51.5574 4.67695 51.3314 4.70727 51.1251 4.79492C51.0973 4.807 51.0753 4.82966 51.0642 4.85791C51.053 4.88616 51.0535 4.91769 51.0656 4.94556C51.0777 4.97343 51.1003 4.99535 51.1286 5.00652C51.1568 5.01768 51.1884 5.01716 51.2162 5.00507L51.2226 5.00205L51.2299 4.99785Z" fill="#0C0C0C"/>
<path d="M51.1251 1.61601C51.2703 0.92088 51.0052 0.277377 50.5329 0.178706C50.0606 0.0800363 49.5601 0.563564 49.4148 1.25869C49.2696 1.95382 49.5347 2.59732 50.007 2.69599C50.4792 2.79466 50.9798 2.31114 51.1251 1.61601Z" fill="#0C0C0C"/>
<path d="M44.1562 19.9654C44.2796 21.4152 45.1546 30.4608 45.2732 32.2466H61.3515C61.4439 30.636 61.8587 23.5929 62.2089 20.4431C62.5433 17.4375 63.0122 16.0696 62.627 15.1357C61.9477 13.4881 59.7857 12.7527 58.3212 12.5545C57.4271 12.4334 56.0823 12.3467 56.0823 12.3467C56.0823 12.3467 55.9685 14.65 53.2534 14.7781C49.5575 14.9526 49.8043 12.3467 49.786 12.3467C49.1873 12.3467 45.928 12.782 45.1131 13.3132C44.6485 13.5958 44.2655 13.9944 44.0017 14.4699C43.7379 14.9454 43.6024 15.4814 43.6086 16.0251C43.5931 17.1066 44.0159 18.321 44.1562 19.9654Z" fill="#2D00F7"/>
<path d="M44.9716 28.6821C44.9601 28.6821 44.9491 28.6778 44.9407 28.67C44.9323 28.6623 44.927 28.6517 44.926 28.6403L44.3169 21.6733C44.3163 21.6673 44.3168 21.6612 44.3186 21.6553C44.3203 21.6495 44.3232 21.6441 44.3271 21.6394C44.3309 21.6347 44.3357 21.6308 44.3411 21.628C44.3465 21.6251 44.3524 21.6234 44.3584 21.6229C44.3645 21.6221 44.3707 21.6226 44.3766 21.6244C44.3824 21.6261 44.3879 21.629 44.3926 21.6329C44.3974 21.6368 44.4012 21.6416 44.404 21.6471C44.4068 21.6525 44.4085 21.6585 44.4089 21.6646L45.0182 28.6315C45.0187 28.6375 45.018 28.6436 45.0162 28.6493C45.0144 28.655 45.0115 28.6604 45.0076 28.665C45.0037 28.6696 44.999 28.6734 44.9936 28.6762C44.9883 28.6789 44.9825 28.6806 44.9765 28.6811L44.9716 28.6821Z" fill="#0C0C0C"/>
<path d="M46.1374 32.7293L48.345 30.9381L47.9736 31.0431C47.853 31.0746 47.7249 31.0592 47.6153 30.9999C47.5056 30.9406 47.4226 30.8419 47.3829 30.7237C47.3645 30.662 47.359 30.5972 47.3665 30.5333C47.374 30.4694 47.3945 30.4076 47.4267 30.3519C47.4588 30.2961 47.502 30.2475 47.5536 30.209C47.6052 30.1705 47.6641 30.1429 47.7267 30.1279L52.3646 28.9998L52.7635 30.4772C52.8873 30.936 52.8713 31.4213 52.7175 31.871C52.5637 32.3206 52.2792 32.7141 51.9004 33.001L50.1818 34.2977C50.0938 34.3668 49.9847 34.4034 49.8728 34.4013C49.761 34.3992 49.6533 34.3585 49.568 34.2861C49.4924 34.2191 49.4401 34.1297 49.419 34.0309C49.3978 33.9321 49.4088 33.8291 49.4503 33.737C49.4449 33.7355 49.4399 33.7329 49.4356 33.7294C49.4312 33.7259 49.4276 33.7215 49.425 33.7166C49.4224 33.7117 49.4209 33.7062 49.4205 33.7007C49.42 33.6951 49.4207 33.6895 49.4226 33.6842L49.106 33.9241C49.0082 34.0014 48.8846 34.0386 48.7604 34.0283C48.6362 34.018 48.5205 33.9608 48.4368 33.8685C48.3649 33.7834 48.3252 33.6756 48.3249 33.5642C48.3245 33.4527 48.3635 33.3447 48.435 33.2592C48.43 33.2584 48.4253 33.2567 48.4209 33.2543L48.2907 33.3528C48.2027 33.4219 48.0936 33.4585 47.9817 33.4563C47.8699 33.4542 47.7622 33.4135 47.6769 33.3411C47.5851 33.2598 47.5283 33.1461 47.5185 33.0238C47.5086 32.9016 47.5466 32.7803 47.6243 32.6854C47.6225 32.6827 47.621 32.6798 47.6197 32.6768L46.7004 33.4226C46.6549 33.4596 46.6025 33.4872 46.5462 33.504C46.49 33.5207 46.431 33.5262 46.3726 33.5201C46.3142 33.514 46.2576 33.4965 46.206 33.4686C46.1544 33.4406 46.1088 33.4028 46.0718 33.3572C46.0348 33.3116 46.0072 33.2592 45.9905 33.203C45.9737 33.1467 45.9682 33.0877 45.9743 33.0294C45.9804 32.971 45.9979 32.9144 46.0259 32.8628C46.0538 32.8112 46.0916 32.7656 46.1372 32.7286L46.1374 32.7293Z" fill="#E98862"/>
<path opacity="0.2" d="M47.676 32.7036C47.6809 32.7019 47.6855 32.6992 47.6895 32.6959L48.574 31.9612C48.5827 31.9535 48.5881 31.9428 48.5891 31.9312C48.59 31.9196 48.5864 31.9081 48.579 31.8992C48.5716 31.8902 48.5609 31.8845 48.5494 31.8833C48.5378 31.8821 48.5263 31.8854 48.5171 31.8926L47.6325 32.6274C47.6244 32.6342 47.619 32.6435 47.6172 32.6538C47.6153 32.6641 47.6171 32.6747 47.6223 32.6838C47.6275 32.6929 47.6357 32.6998 47.6456 32.7034C47.6554 32.7071 47.6662 32.7071 47.676 32.7036V32.7036Z" fill="#0A0A0A"/>
<path opacity="0.2" d="M48.4558 33.2588C48.4605 33.257 48.465 33.2545 48.4689 33.2514L49.1687 32.6798C49.1772 32.6721 49.1825 32.6615 49.1834 32.6501C49.1842 32.6386 49.1807 32.6273 49.1734 32.6184C49.1662 32.6095 49.1558 32.6038 49.1444 32.6024C49.133 32.601 49.1215 32.604 49.1123 32.6109L48.4126 33.1825C48.4046 33.1892 48.3991 33.1984 48.3972 33.2087C48.3953 33.219 48.3971 33.2296 48.4023 33.2387C48.4074 33.2478 48.4156 33.2548 48.4254 33.2585C48.4352 33.2622 48.4459 33.2623 48.4558 33.2588V33.2588Z" fill="#0A0A0A"/>
<path opacity="0.2" d="M49.4793 33.7384C49.4844 33.7366 49.4891 33.7339 49.4933 33.7304L49.8174 33.4523C49.8218 33.4485 49.8255 33.4438 49.8281 33.4386C49.8307 33.4334 49.8323 33.4278 49.8327 33.4219C49.8331 33.4161 49.8324 33.4103 49.8306 33.4047C49.8288 33.3992 49.8259 33.3941 49.822 33.3897C49.8182 33.3853 49.8136 33.3816 49.8084 33.379C49.8032 33.3764 49.7975 33.3748 49.7917 33.3744C49.7859 33.374 49.78 33.3747 49.7745 33.3765C49.769 33.3783 49.7638 33.3812 49.7594 33.385L49.4353 33.663C49.4274 33.6698 49.4222 33.6791 49.4205 33.6893C49.4188 33.6996 49.4208 33.7101 49.426 33.719C49.4312 33.728 49.4394 33.7349 49.4491 33.7384C49.4589 33.742 49.4695 33.7421 49.4793 33.7386V33.7384Z" fill="#0A0A0A"/>
<path d="M65.6494 28.3422L65.6326 28.2669L62.6983 15.2876L56.8924 16.6L59.1829 26.7319L50.0068 28.9861L51.136 34.1644L63.3637 31.8318C63.3916 31.8262 63.431 31.818 63.4597 31.8118C63.8313 31.7278 64.1828 31.5714 64.494 31.3516C64.8052 31.1318 65.07 30.8528 65.2733 30.5306C65.4767 30.2084 65.6145 29.8493 65.6791 29.4738C65.7436 29.0983 65.7335 28.7138 65.6494 28.3422V28.3422Z" fill="#2D00F7"/>
<path d="M49.9619 28.9955C49.9595 28.9839 49.9616 28.9718 49.9679 28.9618C49.9742 28.9518 49.9841 28.9445 49.9955 28.9417L59.1303 26.6984L57.6449 20.1381C57.6422 20.1263 57.6444 20.1139 57.6508 20.1036C57.6573 20.0933 57.6676 20.0861 57.6795 20.0834C57.6913 20.0807 57.7037 20.0829 57.714 20.0893C57.7242 20.0958 57.7315 20.1061 57.7342 20.118L59.2295 26.7219C59.2322 26.7336 59.2301 26.7459 59.2239 26.7561C59.2176 26.7663 59.2075 26.7737 59.1959 26.7765L50.0604 29.02C50.0604 29.02 50.1216 29.287 50.139 29.3766C50.1399 29.3881 50.1363 29.3995 50.129 29.4084C50.1217 29.4173 50.1112 29.4231 50.0998 29.4244C50.0883 29.4258 50.0768 29.4226 50.0676 29.4157C50.0584 29.4087 50.0523 29.3984 50.0505 29.387C50.0295 29.2888 49.9619 28.9955 49.9619 28.9955Z" fill="#0C0C0C"/>
<path d="M50.3199 36.2253L46.792 25.3813C46.73 25.1907 46.6093 25.0246 46.4471 24.9069C46.285 24.7891 46.0897 24.7256 45.8893 24.7256H31.5166C31.3668 24.7256 31.2191 24.761 31.0856 24.829C30.9521 24.897 30.8366 24.9957 30.7486 25.1169C30.6605 25.2381 30.6024 25.3785 30.579 25.5265C30.5556 25.6745 30.5676 25.8259 30.614 25.9684L34.1419 36.8124C34.2038 37.0031 34.3245 37.1692 34.4867 37.287C34.6489 37.4047 34.8441 37.4682 35.0446 37.4681H49.4174C49.5672 37.4681 49.7149 37.4326 49.8483 37.3646C49.9818 37.2965 50.0973 37.1979 50.1853 37.0767C50.2733 36.9555 50.3314 36.8151 50.3548 36.6672C50.3782 36.5192 50.3662 36.3678 50.3199 36.2253V36.2253Z" fill="#292A2E"/>
<path opacity="0.2" d="M50.3199 36.2253L46.792 25.3813C46.73 25.1907 46.6093 25.0246 46.4471 24.9069C46.285 24.7891 46.0897 24.7256 45.8893 24.7256H31.5166C31.3668 24.7256 31.2191 24.761 31.0856 24.829C30.9521 24.897 30.8366 24.9957 30.7486 25.1169C30.6605 25.2381 30.6024 25.3785 30.579 25.5265C30.5556 25.6745 30.5676 25.8259 30.614 25.9684L34.1419 36.8124C34.2038 37.0031 34.3245 37.1692 34.4867 37.287C34.6489 37.4047 34.8441 37.4682 35.0446 37.4681H49.4174C49.5672 37.4681 49.7149 37.4326 49.8483 37.3646C49.9818 37.2965 50.0973 37.1979 50.1853 37.0767C50.2733 36.9555 50.3314 36.8151 50.3548 36.6672C50.3782 36.5192 50.3662 36.3678 50.3199 36.2253V36.2253Z" fill="white"/>
<path d="M40.0531 32.6042C40.8856 32.6042 41.5605 31.9293 41.5605 31.0968C41.5605 30.2642 40.8856 29.5894 40.0531 29.5894C39.2205 29.5894 38.5457 30.2642 38.5457 31.0968C38.5457 31.9293 39.2205 32.6042 40.0531 32.6042Z" fill="white"/>
</svg>
