<svg width="218" height="130" viewBox="0 0 218 130" fill="none" xmlns="http://www.w3.org/2000/svg">
<g clip-path="url(#clip0_255_1435)">
<path d="M211.526 76.9071L204.772 85.1072L198.939 92.1936L167.806 130H0L14.6877 112.405L45.1312 75.9278L73.0299 100.513L155.83 37.6926L200.086 68.8516L211.526 76.9071Z" fill="#D7E8F4"/>
<path opacity="0.27" d="M206.267 90.2882L198.939 92.1936L150.891 104.679L124.063 97.4125L106.219 107.63L95.5778 98.6481L75.0216 114.409L67.8744 107.63L59.2049 121.031L46.3237 104.679L34.3127 121.648L27.5613 107.63L14.6877 112.405L45.1312 75.9278L73.0299 100.513L155.83 37.6926L200.086 68.8516L204.772 85.1073L206.267 90.2882Z" fill="white"/>
<path d="M196.484 24.7361L189.336 50.6482H203.632L196.484 24.7361Z" fill="#8DDBE0"/>
<path d="M111.347 97.4465L105.143 119.937H117.551L111.347 97.4465Z" fill="#8DDBE0"/>
<path d="M124.773 117.761H113.019L118.895 96.4509L124.646 117.299L124.773 117.761Z" fill="#8DDBE0"/>
<path d="M99.1298 128.61H88.938L94.0352 110.139L99.1298 128.61Z" fill="#8DDBE0"/>
<path d="M141.457 77.5554L134.309 103.468H148.605L141.457 77.5554Z" fill="#8DDBE0"/>
<path d="M183.702 38.0671L176.553 63.9795H190.85L183.702 38.0671Z" fill="#8DDBE0"/>
<path d="M130.324 87.5217C131.371 87.5217 132.219 86.6734 132.219 85.6269C132.219 84.5805 131.371 83.7322 130.324 83.7322C129.278 83.7322 128.43 84.5805 128.43 85.6269C128.43 86.6734 129.278 87.5217 130.324 87.5217Z" fill="white"/>
<path d="M156.873 65.8239C158.272 65.8239 159.405 64.6905 159.405 63.2923C159.405 61.8942 158.272 60.7607 156.873 60.7607C155.475 60.7607 154.342 61.8942 154.342 63.2923C154.342 64.6905 155.475 65.8239 156.873 65.8239Z" fill="white"/>
<path d="M171.84 57.1255C172.292 57.1255 172.659 56.7589 172.659 56.3065C172.659 55.8542 172.292 55.4875 171.84 55.4875C171.388 55.4875 171.021 55.8542 171.021 56.3065C171.021 56.7589 171.388 57.1255 171.84 57.1255Z" fill="white"/>
<path d="M138.909 83.3648C139.333 83.3648 139.676 83.0213 139.676 82.5976C139.676 82.1738 139.333 81.8303 138.909 81.8303C138.485 81.8303 138.142 82.1738 138.142 82.5976C138.142 83.0213 138.485 83.3648 138.909 83.3648Z" fill="white"/>
<path d="M217.484 48.6686V130H86.1699C86.3983 129.845 86.6266 129.691 86.8575 129.538C109.015 114.602 133.004 97.2528 146.281 83.9784C174.725 55.5342 193.954 44.018 217.484 48.6686Z" fill="#F3F5FD"/>
<path opacity="0.33" d="M170.163 84.2119C170.163 84.2119 141.759 108.587 134.125 123.053C132.775 125.582 131.091 127.919 129.119 130H115.842C119.485 126.17 122.672 121.931 125.339 117.367C139.783 92.6734 170.163 84.2119 170.163 84.2119Z" fill="white"/>
<path opacity="0.33" d="M161.5 124.854C161.5 124.854 167.253 111.388 182.81 105.166C198.366 98.9433 205.904 82.0825 205.904 82.0825C205.904 82.0825 189.321 96.4175 180.28 99.5834C166.878 104.276 161.5 124.854 161.5 124.854Z" fill="white"/>
<path d="M107.11 20.0632C107.11 20.0632 110.064 18.003 115.475 18.2016C118.138 18.3222 120.804 18.0138 123.37 17.2883C123.633 17.2089 123.916 17.2338 124.161 17.3577C124.406 17.4817 124.593 17.6951 124.685 17.9538L125.549 20.4097C125.597 20.5439 125.617 20.6862 125.608 20.8282C125.599 20.9701 125.562 21.109 125.499 21.2364C125.436 21.3639 125.348 21.4775 125.241 21.5704C125.133 21.6633 125.008 21.7338 124.872 21.7775C123.274 22.2918 120.001 23.0842 116.418 22.4354C111.677 21.5768 108.848 24.2574 108.848 24.2574" fill="#0CBC8B"/>
<path d="M87.0032 86.1053C85.2865 80.6504 85.196 80.1741 85.166 80.0178L90.3997 79.0195C90.3964 79.002 90.3918 78.9786 90.385 78.95C90.4865 79.3709 91.3301 82.1054 92.0849 84.5063L87.0032 86.1053Z" fill="#E98862"/>
<path d="M118.406 48.2532L117.675 45.3672L103.05 47.9645C94.9762 48.1167 87.1381 49.2128 79.2127 50.4573C78.3734 50.592 76.6913 50.8789 75.853 51.0263C72.3094 51.5005 70.1505 55.5209 71.7864 58.7254L84.8021 85.3131L93.3425 81.4161L84.985 61.7022C92.5095 61.4049 99.7752 60.7889 106.157 60.7607H111.577C118.802 60.0338 119.686 53.3118 118.406 48.2532Z" fill="#262626"/>
<path d="M82.5595 90.8958C82.4279 90.9525 82.286 90.9814 82.1427 90.9808C81.9994 90.9801 81.8578 90.9499 81.7267 90.8921C81.5956 90.8343 81.4778 90.75 81.3808 90.6446C81.2837 90.5392 81.2094 90.415 81.1625 90.2796V90.2796C81.0974 90.0918 81.0873 89.8894 81.1334 89.6961C81.1796 89.5028 81.28 89.3267 81.4228 89.1886L86.2774 84.8061C86.3717 84.7217 86.4831 84.6586 86.604 84.6212C86.7249 84.5838 86.8525 84.5728 86.978 84.5892C87.9958 84.7908 89.0515 84.6605 89.9898 84.2175C90.7075 83.842 91.3053 83.2724 91.7151 82.5737C91.7489 82.5071 91.8009 82.4516 91.8651 82.4136C91.9294 82.3756 92.0031 82.3567 92.0777 82.3591C92.1522 82.3615 92.2246 82.3852 92.2862 82.4273C92.3478 82.4694 92.3962 82.5282 92.4255 82.5968L93.6373 85.3765C93.673 85.4585 93.6923 85.5467 93.6938 85.6362C93.6954 85.7256 93.6793 85.8145 93.6465 85.8977C93.6136 85.9809 93.5646 86.0567 93.5023 86.121C93.4401 86.1852 93.3657 86.2365 93.2836 86.2719L82.5595 90.8958Z" fill="#C1D8ED"/>
<path d="M145.28 46.8697C145.28 43.714 140.688 41.5383 140.688 41.5383L138.142 44.6504C138.142 44.6504 140.332 46.9968 140.874 46.6073C141.08 46.4592 140.677 45.7909 140.355 45.321C141.594 45.4925 143.273 46.7657 144.462 47.6045C144.818 47.8564 145.28 47.3053 145.28 46.8697Z" fill="#0CBC8B"/>
<path d="M60.3993 39.2754C61.3159 36.2562 66.3433 35.5095 66.3433 35.5095L67.8743 39.2277C67.8743 39.2277 65.0961 40.8356 64.6914 40.3055C64.5374 40.1041 65.1166 39.5814 65.5616 39.2255C64.3265 39.0296 62.3501 39.7595 60.9676 40.2167C60.5538 40.354 60.2727 39.6928 60.3993 39.2754Z" fill="#0CBC8B"/>
<path d="M66.6601 39.157C66.7009 39.3542 66.7805 39.5413 66.8941 39.7076C67.0077 39.8739 67.1532 40.0161 67.322 40.1258C67.4909 40.2356 67.6798 40.3108 67.8779 40.3471C68.076 40.3835 68.2794 40.3802 68.4762 40.3375L83.0324 37.1797C83.3497 37.1108 83.6523 36.9866 83.9265 36.8129L99.2087 28.6612L95.5475 22.7024L81.3797 31.6236L67.2756 34.6832C66.8828 34.7683 66.5396 35.0051 66.3206 35.342C66.1015 35.679 66.0244 36.0888 66.106 36.4823L66.6601 39.157Z" fill="#367CFF"/>
<path d="M107.684 20.2093L107.691 20.208C107.717 21.643 105.67 24.3849 102.552 24.6321C100.213 24.817 99.1415 22.9593 98.8735 21.5875L107.684 20.2093Z" fill="#E98862"/>
<path d="M138.93 44.7881L141.044 42.567C141.189 42.4147 141.301 42.2335 141.371 42.0353C141.441 41.837 141.469 41.6262 141.453 41.4166C141.436 41.2069 141.376 41.003 141.275 40.8183C141.175 40.6335 141.036 40.472 140.869 40.3442L129.722 31.8208C129.434 31.5116 113.488 21.2571 113.488 21.2571L110.097 28.1975L125.516 36.6673L136.967 44.9682C137.26 45.1808 137.621 45.2797 137.982 45.2466C138.343 45.2134 138.68 45.0505 138.93 44.7881V44.7881Z" fill="#367CFF"/>
<path d="M96.9467 49.9959C98.3652 52.2514 118.598 50.6809 118.227 46.3898C117.992 43.6591 117.715 42.6137 116.913 37.344C116.111 32.0743 118.039 24.6074 113.488 21.2584C112.167 20.2866 110.075 19.848 107.662 20.2128C107.696 21.6476 99.1533 22.953 98.878 21.5829C98.5527 21.6374 98.3 21.6811 98.1422 21.7125C89.8744 23.3384 94.9736 32.253 96.1125 39.1985C97.4501 47.325 95.484 47.6734 96.9467 49.9959Z" fill="#367CFF"/>
<path d="M109.344 78.3607C109.319 78.3201 106.686 74.2807 105.387 72.661L109.544 69.3274C111.008 71.1529 113.696 75.2806 113.81 75.4552L109.344 78.3607Z" fill="#E98862"/>
<path d="M103.949 81.7477C103.817 81.8034 103.675 81.8312 103.532 81.8296C103.388 81.8279 103.247 81.7967 103.116 81.7379C102.986 81.6792 102.868 81.5941 102.772 81.4881C102.676 81.382 102.602 81.2572 102.556 81.1215C102.493 80.9333 102.484 80.7309 102.532 80.5381C102.579 80.3453 102.681 80.17 102.825 80.033L107.71 75.6853C107.805 75.6015 107.917 75.5392 108.038 75.5026C108.159 75.466 108.287 75.456 108.412 75.4732C109.429 75.6822 110.485 75.5594 111.427 75.1228C112.147 74.7525 112.749 74.1872 113.163 73.4914C113.198 73.4252 113.25 73.37 113.315 73.3325C113.379 73.295 113.453 73.2766 113.527 73.2796C113.602 73.2826 113.674 73.3067 113.735 73.3492C113.797 73.3917 113.845 73.4508 113.874 73.5196L115.066 76.308C115.101 76.3902 115.12 76.4786 115.121 76.5681C115.122 76.6575 115.105 76.7463 115.072 76.8293C115.038 76.9123 114.989 76.9878 114.926 77.0516C114.863 77.1154 114.789 77.1662 114.706 77.201L103.949 81.7477Z" fill="#C1D8ED"/>
<path d="M71.4174 95.6661L138.033 67.4457C138.033 67.4457 142.832 65.2572 146.527 62.5997C146.656 62.5076 146.813 62.463 146.971 62.4737C147.129 62.4844 147.279 62.5497 147.394 62.6584C147.51 62.7671 147.584 62.9125 147.604 63.0698C147.624 63.2271 147.589 63.3866 147.505 63.521C145.934 66.0186 142.911 69.5422 137.527 71.8231L72.3229 99.4455C72.3229 99.4455 65.7126 102.488 59.8078 101.731C59.6561 101.713 59.5148 101.644 59.4066 101.536C59.2984 101.428 59.2294 101.287 59.2105 101.136C59.1917 100.984 59.2242 100.83 59.3028 100.699C59.3814 100.568 59.5015 100.467 59.6442 100.412C61.9576 99.544 64.0888 98.9766 71.4174 95.6661Z" fill="#9EBCEA"/>
<path d="M95.0766 7.94312C95.0766 7.94312 94.6575 14.9784 94.0498 18.6639C94.021 18.8385 94.0334 19.0175 94.0862 19.1864C94.139 19.3553 94.2306 19.5095 94.3537 19.6367C94.4768 19.7638 94.628 19.8603 94.7951 19.9185C94.9622 19.9768 95.1407 19.995 95.3161 19.9718L101.414 19.1437C101.703 19.1058 101.966 18.9582 102.149 18.7315C102.332 18.5047 102.421 18.2163 102.397 17.9259L101.604 8.3549L95.0766 7.94312Z" fill="#0F1011"/>
<path d="M106.485 21.0812C105.874 20.3038 105.127 18.7409 104.977 15.672L100.859 15.4556C100.859 15.4556 101.935 20.1382 100.105 21.9155L106.485 21.0812Z" fill="#E98862"/>
<path opacity="0.15" d="M100.794 20.8195L103.796 17.8257L101.17 18.1433C101.212 19.0511 101.085 19.9587 100.794 20.8195Z" fill="black"/>
<path d="M106.985 13.3181C106.919 14.9617 106.242 16.5989 104.893 17.3045C103.429 18.1212 101.787 18.5672 100.11 18.6035C95.6631 18.822 95.2163 8.70399 97.0494 6.486C98.8826 4.268 105.174 4.6912 106.348 7.84313C106.955 9.47326 107.049 11.7547 106.985 13.3181Z" fill="#E98862"/>
<path d="M100.481 12.912C100.684 12.912 100.849 12.7474 100.849 12.5444C100.849 12.3414 100.684 12.1768 100.481 12.1768C100.278 12.1768 100.113 12.3414 100.113 12.5444C100.113 12.7474 100.278 12.912 100.481 12.912Z" fill="#0F1011"/>
<path d="M97.5744 13.0549C97.7775 13.0549 97.9421 12.8903 97.9421 12.6872C97.9421 12.4842 97.7775 12.3196 97.5744 12.3196C97.3714 12.3196 97.2068 12.4842 97.2068 12.6872C97.2068 12.8903 97.3714 13.0549 97.5744 13.0549Z" fill="#0F1011"/>
<path d="M96.8404 11.9939H96.8427L97.8068 11.8546C97.8292 11.8514 97.8508 11.8437 97.8703 11.8321C97.8898 11.8205 97.9068 11.8052 97.9204 11.787C97.934 11.7688 97.9438 11.7481 97.9494 11.7261C97.955 11.7041 97.9562 11.6812 97.9529 11.6588C97.9505 11.636 97.9433 11.614 97.932 11.5941C97.9207 11.5742 97.9054 11.5568 97.8871 11.5431C97.8687 11.5294 97.8478 11.5196 97.8255 11.5143C97.8032 11.509 97.7801 11.5083 97.7576 11.5124L96.7934 11.6517C96.7709 11.6547 96.7493 11.6622 96.7297 11.6737C96.7101 11.6851 96.6929 11.7003 96.6792 11.7184C96.6655 11.7365 96.6555 11.7571 96.6497 11.7791C96.6439 11.801 96.6426 11.8239 96.6456 11.8464C96.6519 11.8918 96.6759 11.9329 96.7124 11.9606C96.7305 11.9743 96.7511 11.9844 96.7731 11.9901C96.795 11.9959 96.8179 11.9973 96.8404 11.9942V11.9939Z" fill="#0F1011"/>
<path d="M101.181 11.7805C101.223 11.7749 101.261 11.7542 101.289 11.7222C101.316 11.6903 101.331 11.6493 101.331 11.6071C101.33 11.5649 101.314 11.5243 101.286 11.4931C101.257 11.4618 101.218 11.442 101.176 11.4375L100.194 11.3337C100.171 11.3307 100.148 11.3324 100.126 11.3385C100.104 11.3446 100.083 11.3551 100.065 11.3694C100.047 11.3837 100.032 11.4014 100.021 11.4215C100.01 11.4417 100.003 11.4639 100 11.4868C99.9978 11.5097 100 11.5328 100.007 11.5549C100.013 11.5769 100.024 11.5974 100.039 11.6152C100.054 11.6329 100.072 11.6475 100.092 11.6582C100.112 11.6689 100.135 11.6753 100.158 11.6772L101.14 11.781C101.153 11.7825 101.167 11.7823 101.181 11.7805V11.7805Z" fill="#0F1011"/>
<path d="M100.69 15.437C100.69 15.437 99.3637 15.7562 98.3767 15.5509C98.3767 15.5509 98.5008 16.4359 99.577 16.3831C100.653 16.3303 100.69 15.437 100.69 15.437Z" fill="white"/>
<g opacity="0.15">
<path opacity="0.15" d="M99.129 14.779C99.1592 14.7751 99.1869 14.7605 99.2073 14.7379C99.2276 14.7152 99.2391 14.686 99.2396 14.6556C99.2402 14.6252 99.2299 14.5956 99.2104 14.5722C99.191 14.5488 99.1638 14.5331 99.1338 14.5281L98.3625 14.3979L98.7291 13.175C98.7348 13.1588 98.737 13.1417 98.7358 13.1246C98.7346 13.1076 98.73 13.0909 98.7222 13.0757C98.7144 13.0604 98.7036 13.0469 98.6905 13.036C98.6773 13.025 98.6621 13.0169 98.6457 13.0119C98.6293 13.007 98.6121 13.0055 98.5951 13.0074C98.5781 13.0093 98.5617 13.0146 98.5468 13.0231C98.5319 13.0315 98.5189 13.0428 98.5085 13.0564C98.4981 13.07 98.4906 13.0856 98.4863 13.1022L98.0946 14.4088C98.0875 14.4328 98.0856 14.4581 98.089 14.4829C98.0924 14.5077 98.101 14.5315 98.1142 14.5527C98.1274 14.574 98.145 14.5922 98.1658 14.6062C98.1865 14.6201 98.21 14.6296 98.2347 14.6339L99.0914 14.7785C99.1039 14.7805 99.1165 14.7807 99.129 14.779V14.779Z" fill="black"/>
</g>
<path d="M94.9543 8.79238C94.9543 8.79238 94.9173 3.49731 103.434 3.68531C106.33 4.26886 106.953 5.22334 108.128 10.4872C108.666 12.9018 110.348 15.0112 111.181 16.3854C111.279 16.5466 111.336 16.7299 111.346 16.9186C111.355 17.1073 111.318 17.2954 111.236 17.4658C111.155 17.6362 111.032 17.7836 110.879 17.8946C110.726 18.0056 110.548 18.0766 110.361 18.1013L105.719 18.7031C105.572 18.7226 105.422 18.7129 105.278 18.6746C105.135 18.6362 105 18.5699 104.882 18.4794C104.764 18.389 104.665 18.2762 104.59 18.1474C104.516 18.0187 104.467 17.8765 104.448 17.729C104.445 17.7126 104.444 17.6961 104.442 17.6783C104.354 16.6738 104.166 14.9782 103.771 12.401C103.273 10.9655 103.95 9.81892 102.814 10.3121C98.5965 12.1419 95.2943 8.83373 94.9543 8.79238Z" fill="#0F1011"/>
<path d="M102.528 13.873C102.551 14.2837 102.736 14.6686 103.042 14.9438C103.347 15.219 103.75 15.3622 104.16 15.3421C104.571 15.322 104.958 15.1403 105.235 14.8366C105.513 14.5329 105.659 14.1318 105.642 13.7208C105.635 13.5196 105.589 13.3217 105.506 13.1383C105.423 12.9549 105.305 12.7897 105.158 12.652C105.011 12.5143 104.839 12.4069 104.65 12.3359C104.462 12.2648 104.262 12.2316 104.06 12.2381C104.043 12.2381 104.026 12.2396 104.01 12.2406C102.902 12.3482 102.486 13.0132 102.528 13.873Z" fill="#E98862"/>
<path d="M98.4396 19.3868C98.4396 19.3868 96.9528 19.5619 97.0934 21.0329C97.2339 22.504 98.1519 22.337 99.0868 22.4284C100.207 22.5367 108.322 21.7152 108.947 20.6706C109.483 19.7745 109.016 17.8617 107.298 18.2527C105.579 18.6437 100.756 19.1653 98.4396 19.3868Z" fill="#0CBC8B"/>
<path d="M102.196 21.1404C102.196 21.1404 101.247 21.4956 101.577 22.4407C101.908 23.3858 102.485 23.1257 103.114 23.0344C103.868 22.9243 109.069 21.0691 109.31 20.2813C109.517 19.6057 108.901 18.4238 107.834 18.9592C106.767 19.4945 103.682 20.6198 102.196 21.1404Z" fill="#0CBC8B"/>
<path opacity="0.78" d="M96.352 10.9466L101.469 10.38C101.623 10.3631 101.778 10.377 101.927 10.4209C102.075 10.4647 102.213 10.5376 102.333 10.6354C102.452 10.7331 102.551 10.8538 102.624 10.9902C102.696 11.1267 102.741 11.2762 102.755 11.4302L102.834 12.287C102.848 12.4406 102.832 12.5956 102.785 12.7428C102.739 12.89 102.664 13.0265 102.564 13.1445C102.465 13.2624 102.343 13.3593 102.206 13.4296C102.068 13.4999 101.918 13.5422 101.764 13.554L99.833 13.7024C99.7135 13.7116 99.5936 13.689 99.4856 13.6369C99.3777 13.5847 99.2854 13.5049 99.2183 13.4056V13.4056C99.1546 13.3115 99.0684 13.2348 98.9675 13.1826C98.8665 13.1304 98.7541 13.1044 98.6405 13.1069C98.5269 13.1095 98.4157 13.1405 98.3172 13.1971C98.2187 13.2537 98.1359 13.3341 98.0765 13.431L97.9979 13.5578C97.9438 13.6457 97.8704 13.7201 97.7833 13.7754C97.6962 13.8308 97.5976 13.8655 97.495 13.877L96.6499 13.9721C96.4928 13.9898 96.3337 13.9752 96.1823 13.9293C96.031 13.8835 95.8906 13.8072 95.7697 13.7053C95.6488 13.6034 95.55 13.4779 95.4792 13.3365C95.4084 13.1951 95.3672 13.0408 95.358 12.8829L95.3166 12.1702C95.2995 11.8724 95.3974 11.5794 95.5901 11.3517C95.7827 11.124 96.0555 10.979 96.352 10.9466Z" fill="white"/>
<path d="M101.599 10.3728C101.889 10.3735 102.168 10.4822 102.382 10.6778C102.596 10.8734 102.729 11.1417 102.755 11.4303L102.834 12.2871C102.848 12.4408 102.832 12.5957 102.785 12.7429C102.739 12.8901 102.664 13.0267 102.564 13.1446C102.465 13.2625 102.343 13.3595 102.206 13.4298C102.068 13.5001 101.918 13.5424 101.764 13.5542L99.833 13.7026C99.8155 13.7039 99.798 13.7046 99.7808 13.7046C99.6697 13.7046 99.5604 13.6773 99.4623 13.6252C99.3642 13.5731 99.2804 13.4978 99.2183 13.4057C99.1546 13.3116 99.0684 13.2349 98.9675 13.1828C98.8665 13.1306 98.7541 13.1046 98.6405 13.1071C98.5269 13.1096 98.4157 13.1406 98.3172 13.1972C98.2187 13.2538 98.1359 13.3342 98.0765 13.4311L97.9979 13.558C97.9439 13.6459 97.8705 13.7204 97.7833 13.7757C97.6962 13.831 97.5976 13.8657 97.495 13.8771L96.6499 13.9723C96.6062 13.9771 96.5622 13.9796 96.5182 13.9796C96.2215 13.9792 95.9362 13.8654 95.7205 13.6616C95.5049 13.4578 95.3752 13.1793 95.358 12.8831L95.3166 12.1704C95.2993 11.8727 95.3969 11.5797 95.5892 11.3519C95.7816 11.124 96.0541 10.9787 96.3505 10.946L101.468 10.3794C101.511 10.3746 101.554 10.3721 101.597 10.372L101.599 10.3728ZM101.597 9.61089C101.526 9.61093 101.455 9.61491 101.384 9.62282L96.2668 10.1894C95.7765 10.2435 95.3258 10.4838 95.0076 10.8607C94.6894 11.2375 94.528 11.7222 94.5567 12.2145L94.5981 12.9272C94.6131 13.1884 94.6812 13.4437 94.7982 13.6777C94.9153 13.9116 95.0788 14.1192 95.2788 14.2878C95.4788 14.4564 95.7111 14.5825 95.9614 14.6583C96.2118 14.7341 96.475 14.758 96.7349 14.7286L97.58 14.6337C97.7976 14.6098 98.0068 14.5363 98.1915 14.4189C98.3762 14.3015 98.5316 14.1434 98.6456 13.9566L98.6609 13.9312C98.7958 14.0977 98.9663 14.232 99.1599 14.3242C99.3534 14.4164 99.5651 14.4642 99.7795 14.464C99.8163 14.464 99.8531 14.4625 99.8899 14.4597L101.821 14.3113C102.076 14.2917 102.324 14.2217 102.551 14.1054C102.778 13.9891 102.98 13.8288 103.145 13.6338C103.309 13.4388 103.433 13.213 103.51 12.9696C103.587 12.7262 103.614 12.4699 103.591 12.2158L103.512 11.359C103.47 10.8804 103.25 10.4349 102.895 10.1109C102.541 9.78689 102.077 9.60807 101.597 9.60988L101.597 9.61089Z" fill="#262626"/>
<path d="M103.283 12.4162C103.185 12.416 103.091 12.3781 103.02 12.3103C102.949 12.2425 102.907 12.1501 102.903 12.0523C102.899 11.9545 102.933 11.8588 102.997 11.7851C103.061 11.7114 103.152 11.6654 103.249 11.6566L106.296 11.3834C106.396 11.3743 106.496 11.4056 106.574 11.4704C106.651 11.5351 106.7 11.628 106.709 11.7285C106.718 11.8291 106.687 11.9291 106.622 12.0066C106.557 12.0841 106.464 12.1327 106.364 12.1417L103.317 12.4147C103.305 12.4157 103.294 12.4162 103.283 12.4162Z" fill="#262626"/>
<path d="M94.9363 8.90841C94.9363 8.90841 94.7308 7.47922 95.8822 5.85467C96.891 4.43132 100.383 1.89922 103.44 2.75628C107.713 3.95382 108.917 10.9889 107.891 10.5677C103.781 8.93463 99.3254 8.36395 94.9363 8.90841V8.90841Z" fill="#0CBC8B"/>
<path d="M104.084 4.26904C105.263 4.26904 106.219 3.31338 106.219 2.13452C106.219 0.955658 105.263 0 104.084 0C102.905 0 101.95 0.955658 101.95 2.13452C101.95 3.31338 102.905 4.26904 104.084 4.26904Z" fill="#0CBC8B"/>
<path d="M96.0362 9.15222C96.0362 9.15222 95.4273 9.00405 95.6135 8.03587C95.6201 7.99763 95.6386 7.96244 95.6663 7.93526C95.694 7.90809 95.7295 7.89031 95.7679 7.88445C95.8062 7.87859 95.8454 7.88493 95.88 7.90259C95.9145 7.92025 95.9426 7.94832 95.9604 7.98284C96.2374 8.52681 96.839 9.35139 97.9421 9.35139" fill="#0F1011"/>
<path d="M96.1882 8.95355C96.1882 8.95355 96.1408 8.22158 96.9748 7.44622C97.0026 7.42025 97.0377 7.40344 97.0753 7.39809C97.113 7.39273 97.1514 7.39908 97.1853 7.41628C97.2192 7.43348 97.247 7.46069 97.265 7.49423C97.2829 7.52777 97.2901 7.56601 97.2856 7.60378C97.2077 8.20864 97.2389 9.23391 98.1548 9.85628" fill="#0F1011"/>
<path d="M112.416 60.5582L114.919 49.2061C107.265 48.3237 97.6769 47.782 89.988 47.2096C85.2864 46.5477 82.086 52.7181 85.4762 56.1628L105.609 77.5555L113.332 72.6646L102.194 59.3173C105.707 59.6943 109.186 60.1013 112.416 60.5582Z" fill="#262626"/>
</g>
<defs>
<clipPath id="clip0_255_1435">
<rect width="217.484" height="130" fill="white"/>
</clipPath>
</defs>
</svg>
