<svg width="219" height="130" viewBox="0 0 219 130" fill="none" xmlns="http://www.w3.org/2000/svg">
<g clip-path="url(#clip0_255_1617)">
<path d="M12.7031 130C4.3517 130 -1.70972 120.568 0.434431 110.95C3.25165 98.3151 7.06179 89.5143 23.9915 79.3403C38.6683 70.5104 50.4336 57.5706 57.8313 42.1224C68.2905 20.292 73.372 0 93.0239 0C122.103 0 122.256 26.5474 130.926 29.2471C139.596 31.9469 168.659 23.9293 175.152 47.5949C187.152 91.3409 203.26 70.252 215.762 103.939C216.543 106.064 217.215 108.226 217.777 110.419C220.296 120.147 214.181 130 205.637 130L12.7031 130Z" fill="#F3F5FD"/>
<path d="M167.119 3.99243H48.0896V90.1927H167.119V3.99243Z" fill="#DEE8F5"/>
<path d="M140.846 36.7434H74.3629C72.2361 36.7434 70.512 38.4675 70.512 40.5944C70.512 42.7212 72.2361 44.4453 74.3629 44.4453H140.846C142.972 44.4453 144.697 42.7212 144.697 40.5944C144.697 38.4675 142.972 36.7434 140.846 36.7434Z" fill="white"/>
<path d="M144.697 40.5937C144.697 41.0992 144.598 41.5998 144.405 42.0669C144.212 42.534 143.929 42.9586 143.572 43.3163C143.215 43.674 142.79 43.9579 142.324 44.1517C141.857 44.3455 141.356 44.4454 140.851 44.4458H128.448V36.7439H140.845C141.351 36.7437 141.852 36.8431 142.319 37.0364C142.786 37.2297 143.211 37.5131 143.568 37.8706C143.926 38.228 144.21 38.6524 144.404 39.1195C144.597 39.5866 144.697 40.0873 144.697 40.5929L144.697 40.5937Z" fill="#2D00F7"/>
<path d="M167.119 3.99243H48.0896V11.0932H167.119V3.99243Z" fill="#C1D8ED"/>
<path d="M163.133 9.32434C164.117 9.32434 164.914 8.52671 164.914 7.54278C164.914 6.55886 164.117 5.76123 163.133 5.76123C162.149 5.76123 161.351 6.55886 161.351 7.54278C161.351 8.52671 162.149 9.32434 163.133 9.32434Z" fill="white"/>
<path d="M96.2134 61.645C96.0117 61.6449 95.8123 61.6008 95.6293 61.516C95.4462 61.4311 95.2838 61.3074 95.1533 61.1535C95.0228 60.9996 94.9274 60.8192 94.8736 60.6247C94.8198 60.4302 94.809 60.2264 94.8418 60.0273L96.8279 48.126C96.8885 47.7626 97.091 47.4381 97.3908 47.224C97.6906 47.0099 98.0632 46.9237 98.4267 46.9843C98.7901 47.0449 99.1146 47.2474 99.3287 47.5472C99.5428 47.847 99.629 48.2197 99.5684 48.5831L97.5824 60.4844C97.5283 60.8085 97.361 61.1029 97.1104 61.3154C96.8598 61.5279 96.542 61.6446 96.2134 61.645V61.645Z" fill="#2D00F7"/>
<path d="M99.0175 48.9452C97.0363 48.9466 95.1285 48.1956 93.6798 46.8441C92.2312 45.4925 91.3499 43.6413 91.2142 41.6647C91.0784 39.6881 91.6984 37.7338 92.9487 36.1969C94.1989 34.66 95.9862 33.6552 97.949 33.3858C99.9118 33.1165 101.904 33.6025 103.522 34.7457C105.14 35.889 106.263 37.604 106.665 39.544C107.067 41.4841 106.717 43.5043 105.686 45.1962C104.655 46.8881 103.02 48.1253 101.112 48.6577C100.43 48.8478 99.7255 48.9445 99.0175 48.9452V48.9452ZM97.6635 36.28C96.5412 36.5926 95.5619 37.2847 94.8926 38.2384C94.2233 39.192 93.9054 40.3483 93.9931 41.5101C94.0807 42.6719 94.5685 43.7673 95.3733 44.6098C96.1781 45.4523 97.2501 45.9896 98.4067 46.1303C99.5633 46.271 100.733 46.0063 101.716 45.3813C102.699 44.7563 103.436 43.8097 103.799 42.7028C104.163 41.5958 104.131 40.3971 103.71 39.3108C103.289 38.2245 102.504 37.3178 101.489 36.7453C100.914 36.4186 100.28 36.2092 99.6231 36.1293C98.9664 36.0495 98.3003 36.1007 97.6635 36.28V36.28Z" fill="#2D00F7"/>
<path d="M84.8163 127.926L80.8198 127.451C80.9998 125.939 81.2031 124.121 81.2169 123.823C81.2169 123.843 81.2169 123.858 81.2169 123.87H85.2415C85.2407 123.991 85.2408 124.358 84.8163 127.926Z" fill="#E98862"/>
<path d="M68.7802 128.408L64.7556 128.395C64.7556 128.395 64.769 124.239 64.769 123.871H68.7936C68.7936 124.24 68.7802 128.408 68.7802 128.408Z" fill="#E98862"/>
<path d="M86.3013 126.535C85.9682 118.101 85.9481 109.242 85.8438 100.786C84.459 91.665 83.732 81.661 82.0233 72.6041L81.9723 72.6192L81.8225 71.5978L67.2425 70.6987C67.2425 70.6987 66.8623 77.8428 66.7297 80.2236C66.019 92.9848 64.5769 113.496 63.7185 126.428L70.7842 127.024C72.0462 114.307 74.1039 94.0468 75.2442 81.5122C76.4956 87.8993 77.6758 95.0916 78.7868 101.554C79.03 109.81 79.2335 118.414 79.2113 126.656L86.3013 126.535Z" fill="#262626"/>
<path d="M73.6727 129.964C73.8815 129.963 74.0813 129.879 74.2283 129.731C74.3752 129.583 74.4573 129.382 74.4563 129.173C74.4563 129.154 74.4563 129.135 74.454 129.116C74.4423 128.966 74.3881 128.823 74.2979 128.703C74.2076 128.584 74.085 128.492 73.9444 128.44L69.26 126.87C69.1693 126.84 69.0731 126.83 68.9781 126.841C68.8831 126.852 68.7915 126.883 68.7096 126.932C68.0656 127.379 67.2952 127.607 66.5118 127.583C65.9016 127.54 65.3158 127.326 64.8215 126.966C64.778 126.93 64.7253 126.908 64.6695 126.901C64.6138 126.894 64.5572 126.903 64.5065 126.927C64.4557 126.951 64.4129 126.989 64.3829 127.037C64.3529 127.084 64.337 127.14 64.3372 127.196V129.486C64.3372 129.622 64.3912 129.753 64.4875 129.849C64.5837 129.945 64.7143 130 64.8504 130H64.8523L73.6727 129.964Z" fill="#C1D8ED"/>
<path d="M89.72 129.964C89.8234 129.964 89.9256 129.943 90.0209 129.903C90.1162 129.863 90.2027 129.805 90.2755 129.731C90.3482 129.658 90.4058 129.571 90.4449 129.475C90.4841 129.379 90.5039 129.277 90.5035 129.174C90.5035 129.154 90.5035 129.135 90.5012 129.116C90.4895 128.966 90.4354 128.823 90.3451 128.704C90.2549 128.584 90.1323 128.492 89.9918 128.44L85.3073 126.87C85.2166 126.84 85.1204 126.83 85.0254 126.841C84.9304 126.852 84.8388 126.883 84.7569 126.932C84.1129 127.379 83.3425 127.607 82.5591 127.583C81.9488 127.54 81.363 127.326 80.8686 126.966C80.8251 126.93 80.7724 126.908 80.7166 126.901C80.6609 126.894 80.6043 126.903 80.5536 126.927C80.5028 126.951 80.46 126.989 80.43 127.037C80.4 127.084 80.3842 127.14 80.3843 127.196V129.486C80.3843 129.622 80.4383 129.753 80.5346 129.849C80.6308 129.945 80.7614 130 80.8975 130H80.8996L89.72 129.964Z" fill="#C1D8ED"/>
<path d="M71.9666 51.0484C71.9666 51.0484 73.4484 50.2626 73.1176 46.2273L76.1793 45.6594C76.1793 45.6594 75.8344 49.2775 77.3842 50.4261L71.9666 51.0484Z" fill="#E98862"/>
<path d="M71.3804 44.6625C71.5923 45.8867 72.2604 47.0462 73.3403 47.4414C74.6225 47.9109 75.5721 47.9427 77.0503 47.9427C79.0673 47.9427 79.0007 45.839 79.0574 43.719C79.1149 41.5917 78.9449 39.3077 78.1476 38.566C76.557 37.0857 71.8859 38.0231 71.3179 40.4992C71.0245 41.7799 71.1778 43.4971 71.3804 44.6625Z" fill="#E98862"/>
<path d="M80.3034 38.5427C79.9661 37.3053 78.9143 36.7008 77.1753 37.1554C75.9384 37.4787 75.7818 37.188 74.7343 36.6837C74.1344 36.3949 72.1662 36.5268 71.6792 37.8589C71.1572 39.2859 69.5422 38.1303 69.3921 40.455C69.2666 42.4008 69.9243 45.1822 71.2459 46.7473C71.7036 47.2891 72.45 47.9386 73.0282 48.0992C73.5961 48.2571 76.0511 48.1184 76.2897 47.9777C77.462 47.2817 77.3416 44.0892 77.1557 42.0413C77.1253 41.7043 77.1872 41.1443 78.0519 41.1443C78.646 41.1443 78.9751 41.1302 79.2819 40.909C79.2815 40.909 80.641 39.78 80.3034 38.5427Z" fill="#0F1011"/>
<path d="M78.317 44.1212C78.3404 44.4313 78.2401 44.738 78.0381 44.9745C77.8361 45.2109 77.5488 45.3578 77.2388 45.3831C76.9289 45.4084 76.6215 45.3101 76.3838 45.1096C76.1461 44.909 75.9975 44.6226 75.9702 44.3128C75.9553 44.1615 75.9702 44.0087 76.0143 43.8632C76.0584 43.7176 76.1307 43.5822 76.2271 43.4646C76.3235 43.347 76.4422 43.2496 76.5763 43.1779C76.7103 43.1062 76.8573 43.0615 77.0086 43.0466C77.0214 43.0453 77.0344 43.0441 77.0469 43.0433C77.8865 43.0167 78.2639 43.4732 78.317 44.1212Z" fill="#E98862"/>
<path d="M62.9515 77.6035C62.9515 78.1746 63.2532 80.084 62.7681 80.2203C62.4772 80.3021 62.1338 78.8787 62.1338 78.8787" fill="#E98862"/>
<path d="M60.6619 77.3036C60.6619 77.3036 59.0781 81.1584 60.8844 83.3731C60.9305 83.4294 60.9925 83.4705 61.0623 83.4911C61.1321 83.5116 61.2065 83.5106 61.2758 83.4882C61.345 83.4659 61.4059 83.4231 61.4505 83.3655C61.4951 83.308 61.5213 83.2383 61.5256 83.1657C61.6136 81.6726 61.9147 78.6056 62.8992 78.9638V76.5562" fill="#E98862"/>
<path d="M96.3736 56.7658C96.3736 56.7658 98.634 54.0118 98.9158 53.4256C99.9075 51.3621 99.4119 50.4167 98.9989 50.1147C98.5116 49.7574 96.2515 52.7943 96.2515 52.7943C96.2515 52.7943 96.4477 51.7019 96.0244 51.63C95.8506 51.6007 95.7128 51.7715 95.4406 52.5446C95.1305 53.4261 94.5107 54.7516 94.5107 54.7516L96.3736 56.7658Z" fill="#E98862"/>
<path d="M94.0451 54.43L87.5027 61.7908L82.3857 52.631C81.9012 51.1839 80.7983 50.2146 78.5483 50.1182C77.7788 50.0852 74.0243 50.0798 71.2753 50.0798C69.4286 50.0798 67.9125 50.6465 67.0368 51.522C66.5958 51.9567 66.2659 52.4911 66.0747 53.0801L66.0483 53.0703L61.649 65.0312C61.5998 65.1654 61.5644 65.3042 61.5434 65.4455L59.7678 77.4064L63.9015 78.0197L65.6455 66.2708L67.422 61.4399C67.607 62.1825 67.7081 62.9434 67.7235 63.7084C67.7235 67.733 65.9028 69.538 66.037 71.6043C66.2478 74.8518 82.0259 74.0844 82.8299 72.2398C83.6576 70.3375 81.9776 69.1654 82.0512 62.9432C82.0591 62.2659 82.1114 61.5576 82.1835 60.8362L85.2882 66.394C85.4508 66.685 85.6806 66.9329 85.9586 67.117C86.2365 67.301 86.5545 67.4159 86.8859 67.4519C86.9612 67.4603 87.0368 67.4644 87.1125 67.4644C87.4075 67.4644 87.6992 67.4018 87.9684 67.2809C88.2375 67.16 88.478 66.9835 88.674 66.7629L97.2759 56.7014L94.0451 54.43Z" fill="#F20089"/>
<path d="M136.596 41.0107L135.973 41.3015L137.019 43.5397L137.641 43.2488L136.596 41.0107Z" fill="white"/>
<path d="M135.741 41.7012C135.359 41.7013 134.985 41.5879 134.667 41.3756C134.349 41.1632 134.101 40.8614 133.955 40.5082C133.809 40.1551 133.77 39.7664 133.845 39.3915C133.92 39.0166 134.104 38.6722 134.374 38.4019C134.644 38.1315 134.989 37.9474 135.363 37.8728C135.738 37.7983 136.127 37.8365 136.48 37.9828C136.833 38.1291 137.135 38.3768 137.348 38.6947C137.56 39.0125 137.673 39.3862 137.673 39.7685C137.673 40.2808 137.469 40.7719 137.107 41.1342C136.744 41.4965 136.253 41.7004 135.741 41.7012V41.7012ZM135.741 38.5229C135.494 38.5229 135.254 38.596 135.049 38.7329C134.844 38.8698 134.684 39.0643 134.59 39.2919C134.496 39.5196 134.471 39.77 134.519 40.0117C134.567 40.2533 134.686 40.4753 134.86 40.6495C135.034 40.8237 135.256 40.9424 135.498 40.9904C135.739 41.0385 135.99 41.0138 136.218 40.9195C136.445 40.8253 136.64 40.6656 136.777 40.4607C136.913 40.2559 136.987 40.015 136.987 39.7687C136.986 39.4384 136.855 39.1217 136.621 38.8882C136.388 38.6547 136.071 38.5233 135.741 38.5229V38.5229Z" fill="white"/>
<path d="M188.688 129.612C192.608 128.96 196.465 127.935 200.372 124.126C201.173 123.346 201.967 122.314 201.736 121.217C201.562 120.392 200.816 119.777 200.007 119.535C199.705 119.448 199.395 119.397 199.081 119.382C199.079 119.382 199.077 119.382 199.077 119.381C198.594 119.365 198.11 119.393 197.632 119.465L197.495 119.484C195.216 119.808 192.997 120.467 190.909 121.439C190.72 121.526 190.507 121.547 190.305 121.498C190.102 121.449 189.922 121.333 189.794 121.168C189.667 121.004 189.598 120.801 189.6 120.592C189.603 120.384 189.675 120.183 189.807 120.021C190.046 119.728 190.315 119.46 190.608 119.222C191.04 118.878 191.503 118.575 191.992 118.318C192.642 117.967 193.325 117.669 193.996 117.36C196.491 116.211 198.889 114.865 201.169 113.334C202.796 112.24 204.411 110.999 205.348 109.276C205.779 108.484 206.055 107.54 205.787 106.679C205.345 105.264 203.63 104.651 202.147 104.73C199.55 104.869 197.275 106.448 195.229 108.053C193.532 109.386 191.634 110.861 189.485 110.663C189.116 110.648 188.76 110.524 188.46 110.308C187.901 109.856 187.861 108.979 188.171 108.33C188.481 107.68 189.058 107.207 189.614 106.752C192.847 104.111 196.052 101.343 198.389 97.8861C200.726 94.4292 202.135 90.1627 201.4 86.0538C201.184 84.8522 200.776 83.6561 200.016 82.7C199.255 81.7438 198.1 81.0529 196.878 81.0491C195.213 81.0413 193.793 82.2536 192.77 83.5652C189.254 88.0667 188.61 94.0823 187.043 99.5745C186.604 101.112 186.058 102.676 184.948 103.839C184.845 103.952 184.719 104.041 184.579 104.1C183.749 104.44 183.182 103.448 182.997 102.648C182.269 99.4787 182.455 95.9938 180.755 93.2214C180.106 92.1658 179.113 91.2218 177.884 91.0619C176.384 90.8676 174.929 91.9447 174.296 93.3191C173.663 94.6936 173.712 96.2872 173.986 97.7751C174.496 100.535 175.731 103.119 177.284 105.455C178.103 106.688 179.047 107.95 179.141 109.426C179.163 109.927 179.057 110.424 178.833 110.872C178.609 111.32 178.274 111.703 177.861 111.985C177.668 112.112 177.452 112.198 177.225 112.239C176.998 112.281 176.765 112.276 176.54 112.226C176.055 112.114 175.644 111.802 175.248 111.499C175.082 111.372 174.916 111.244 174.748 111.116C174.087 110.61 173.426 110.104 172.765 109.597C171.085 108.309 169.03 106.947 167.01 107.583C165.978 107.909 165.222 108.721 164.783 109.713C164.388 110.614 164.252 111.606 164.392 112.58C164.691 114.606 167.514 120.515 168.792 122.114C170.285 123.984 175.275 131.843 188.688 129.612Z" fill="#8DDBE0"/>
<path d="M23.9665 128.78C20.1707 127.604 16.488 126.066 13.1325 121.764C12.4439 120.882 11.7967 119.753 12.1742 118.698C12.4583 117.903 13.2799 117.394 14.1145 117.265C14.4254 117.219 14.7406 117.211 15.0536 117.239C15.0551 117.239 15.0566 117.239 15.0572 117.239C15.5383 117.288 16.0138 117.382 16.4779 117.518L16.6105 117.556C18.8252 118.185 20.9348 119.138 22.8712 120.384C23.0467 120.495 23.2549 120.545 23.4618 120.523C23.6688 120.502 23.8624 120.411 24.0112 120.265C24.16 120.12 24.2552 119.928 24.2813 119.722C24.3075 119.515 24.2631 119.306 24.1553 119.128C23.9577 118.806 23.7278 118.504 23.4692 118.228C23.0876 117.829 22.6697 117.466 22.2208 117.145C21.624 116.71 20.9873 116.321 20.3643 115.924C18.048 114.448 15.8536 112.79 13.8021 110.964C12.3379 109.66 10.9061 108.212 10.21 106.378C9.89038 105.535 9.74492 104.563 10.1263 103.746C10.7557 102.404 12.5384 102.028 13.9964 102.306C16.5509 102.796 18.5917 104.668 20.4015 106.535C21.9023 108.086 23.584 109.803 25.7402 109.898C26.1077 109.933 26.4772 109.859 26.8031 109.685C27.4183 109.313 27.5764 108.449 27.3571 107.764C27.1379 107.079 26.6306 106.531 26.1409 106.005C23.2948 102.953 20.494 99.7757 18.6458 96.0346C16.7975 92.2934 15.9792 87.8758 17.2634 83.9033C17.6398 82.7419 18.2056 81.612 19.0883 80.7683C19.971 79.9247 21.2085 79.3957 22.4201 79.5573C24.0708 79.7746 25.314 81.1671 26.1503 82.606C29.025 87.5417 28.8493 93.589 29.659 99.2426C29.8855 100.825 30.2148 102.449 31.1577 103.752C31.2446 103.877 31.3574 103.982 31.4885 104.06C32.2643 104.509 32.9603 103.603 33.2516 102.835C34.4015 99.7935 34.689 96.3155 36.7477 93.7984C37.5334 92.8402 38.645 92.0393 39.884 92.0472C41.398 92.0575 42.6926 93.3214 43.1341 94.7685C43.5757 96.2157 43.3114 97.7883 42.8384 99.2255C41.9603 101.891 40.3863 104.285 38.5317 106.389C37.5543 107.501 36.4483 108.623 36.1553 110.072C36.0655 110.565 36.1031 111.072 36.2645 111.546C36.426 112.021 36.7059 112.445 37.0777 112.781C37.2515 112.932 37.454 113.047 37.6731 113.119C37.8922 113.19 38.1234 113.217 38.3531 113.198C38.8498 113.153 39.2991 112.899 39.7329 112.653C39.9146 112.549 40.0971 112.444 40.2805 112.341C41.0035 111.93 41.7267 111.518 42.4501 111.105C44.289 110.056 46.5096 108.984 48.4249 109.887C49.4023 110.349 50.0426 111.257 50.3439 112.299C50.6135 113.245 50.6135 114.247 50.3439 115.193C49.7734 117.16 46.1773 122.633 44.6939 124.045C42.9611 125.694 36.9541 132.805 23.9665 128.78Z" fill="#8DDBE0"/>
</g>
<defs>
<clipPath id="clip0_255_1617">
<rect width="218.349" height="130" fill="white"/>
</clipPath>
</defs>
</svg>
